<?xml version="1.0" standalone="no"?>
<!DOCTYPE svg PUBLIC "-//W3C//DTD SVG 1.1//EN" "http://www.w3.org/Graphics/SVG/1.1/DTD/svg11.dtd" >
<svg xmlns="http://www.w3.org/2000/svg" xmlns:xlink="http://www.w3.org/1999/xlink" version="1.1">
<metadata>
Created by FontForge 20190801 at Tue Oct 22 09:33:00 2019
 By root
Copyright 2019 The Inter project authors
</metadata>
<defs>
<font id="Inter-Regular" horiz-adv-x="1640" >
  <font-face 
    font-family="Inter"
    font-weight="400"
    font-stretch="normal"
    units-per-em="2816"
    panose-1="2 11 5 2 3 0 0 0 0 4"
    ascent="2252"
    descent="-564"
    x-height="1536"
    cap-height="2048"
    bbox="-2080 -660 7274 2720"
    underline-thickness="192"
    underline-position="-560"
    unicode-range="U+0020-04FF"
  />
<missing-glyph horiz-adv-x="2800" 
d="M248 -640v512h2304v-512h-2304zM248 64v512h2304v-512h-2304zM248 768v512h2304v-512h-2304zM248 1472v512h2304v-512h-2304zM248 2176v512h2304v-512h-2304z" />
    <glyph glyph-name="uni2192" unicode="&#x2d;&#x3e;" horiz-adv-x="2688" 
d="M1514 0l-154 152l634 634h-1642v220h1642l-634 632l154 154l896 -896z" />
    <glyph glyph-name="uni21D2" unicode="&#x3d;&#x3e;" horiz-adv-x="2688" 
d="M1514 0l-154 152l396 396h-1404v220h1624l128 128l-128 128h-1624v220h1403l-395 394l154 154l896 -896z" />
    <glyph glyph-name="uni21D4" unicode="&#x3c;&#x3d;&#x3e;" horiz-adv-x="3776" 
d="M2602 0l-154 152l396 396h-1912l396 -396l-154 -152l-896 896l896 896l154 -154l-395 -394h1910l-395 394l154 154l896 -896zM712 768h2352l128 128l-128 128h-2352l-128 -128z" />
    <glyph glyph-name="uni27F5" unicode="&#x3c;&#x2d;&#x2d;" horiz-adv-x="3776" 
d="M1174 0l-896 896l896 896l154 -152l-634 -634h2730v-220h-2730l634 -632z" />
    <glyph glyph-name="uni27F6" unicode="&#x2d;&#x2d;&#x3e;" horiz-adv-x="3776" 
d="M2602 0l-154 154l634 632h-2730v220h2730l-634 634l154 152l896 -896z" />
    <glyph glyph-name="uni27F8" unicode="&#x3c;&#x3d;&#x3d;" horiz-adv-x="3776" 
d="M1174 0l-896 896l896 896l154 -154l-395 -394h2491v-220h-2712l-128 -128l128 -128h2712v-220h-2492l396 -396z" />
    <glyph glyph-name="uni27F9" unicode="&#x3d;&#x3d;&#x3e;" horiz-adv-x="3776" 
d="M2602 0l-154 152l396 396h-2492v220h2712l128 128l-128 128h-2712v220h2491l-395 394l154 154l896 -896z" />
    <glyph glyph-name="uni27FA" unicode="&#x3c;&#x3d;&#x3d;&#x3e;" horiz-adv-x="4928" 
d="M3754 0l-154 152l396 396h-3064l396 -396l-154 -152l-896 896l896 896l154 -154l-395 -394h3062l-395 394l154 154l896 -896zM712 768h3504l128 128l-128 128h-3504l-128 -128z" />
    <glyph glyph-name="u1F850" unicode="&#x3c;&#x2d;&#x2d;&#x2d;" horiz-adv-x="7552" 
d="M1174 0l-896 896l896 896l154 -152l-634 -634h6506v-220h-6506l634 -632z" />
    <glyph glyph-name="u1F852" unicode="&#x2d;&#x2d;&#x2d;&#x3e;" horiz-adv-x="7552" 
d="M6378 0l-154 154l634 632h-6506v220h6506l-634 634l154 152l896 -896z" />
    <glyph glyph-name=".notdef" horiz-adv-x="2800" 
d="M248 -640v512h2304v-512h-2304zM248 64v512h2304v-512h-2304zM248 768v512h2304v-512h-2304zM248 1472v512h2304v-512h-2304zM248 2176v512h2304v-512h-2304z" />
    <glyph glyph-name=".null" horiz-adv-x="0" 
 />
    <glyph glyph-name="nonmarkingreturn" horiz-adv-x="938" 
 />
    <glyph glyph-name="uni0020" unicode=" " horiz-adv-x="792" 
 />
    <glyph glyph-name="uni0021" unicode="!" horiz-adv-x="784" 
d="M528 2048l-20 -1472h-232l-20 1472h272zM392 -16q-74 0 -127 53t-53 127t53 127t127 53t127 -53t53 -127t-53 -127t-127 -53z" />
    <glyph glyph-name="uni0022" unicode="&#x22;" horiz-adv-x="1136" 
d="M420 2048v-704h-220v704h220zM932 2048v-704h-220v704h220z" />
    <glyph glyph-name="uni0023" unicode="#" horiz-adv-x="1776" 
d="M980 0l93 568h-520l-93 -568h-200l93 568h-305l32 200h306l84 512h-302l32 200h303l93 568h200l-93 -568h520l93 568h200l-93 -568h305l-32 -200h-306l-84 -512h302l-32 -200h-303l-93 -568h-200zM586 768h520l84 512h-520z" />
    <glyph glyph-name="uni0024" unicode="$" horiz-adv-x="1796" 
d="M816 -256v223q-291 19 -465 170.5t-191 390.5h256q13 -148 123 -233.5t277 -102.5v757l-80 23q-520 149 -520 532q0 154 78.5 277.5t214 197.5t307.5 92v233h164v-230q271 -18 445.5 -168.5t182.5 -369.5h-240q-16 134 -121 217.5t-267 99.5v-711l80 -22q54 -14 99 -28.5
t107 -40.5t110.5 -55.5t99 -74t84 -95.5t55 -121t21.5 -149q0 -117 -44 -219.5t-126 -181t-207 -128t-279 -60.5v-223h-164zM980 192q185 21 300.5 120.5t115.5 247.5q0 59 -22.5 108t-57.5 82.5t-92 63t-109.5 48t-126.5 38.5l-8 2v-710zM816 1186v664
q-165 -22 -262.5 -113t-97.5 -221q0 -58 23.5 -108t58.5 -83.5t86.5 -62t95 -45t96.5 -31.5z" />
    <glyph glyph-name="uni0025" unicode="%" horiz-adv-x="2288" 
d="M1256 384v108q0 175 107.5 293.5t292.5 118.5q187 0 291.5 -117.5t104.5 -294.5v-108q0 -114 -44.5 -206t-136 -149t-215.5 -57q-126 0 -218 57t-137 149t-45 206zM236 1556v108q0 175 107.5 293.5t292.5 118.5q187 0 291.5 -117.5t104.5 -294.5v-108q0 -114 -44.5 -206
t-136 -149t-215.5 -57q-126 0 -218 57t-137 149t-45 206zM312 0l1408 2048h228l-1408 -2048h-228zM1460 492v-108q0 -103 47.5 -171.5t148.5 -68.5q98 0 145 68.5t47 171.5v108q0 104 -46 172t-146 68q-98 0 -147 -69t-49 -171zM440 1664v-108q0 -103 47.5 -171.5
t148.5 -68.5q98 0 145 68.5t47 171.5v108q0 104 -46 172t-146 68q-98 0 -147 -69t-49 -171z" />
    <glyph glyph-name="uni0026" unicode="&#x26;" horiz-adv-x="1800" 
d="M796 -28q-298 0 -475 159.5t-177 412.5q0 90 28 168.5t86 148t124.5 126t165.5 125.5q-123 148 -181.5 257.5t-58.5 234.5q0 208 136 336t360 128q112 0 206.5 -35t157.5 -93.5t97.5 -136t34.5 -163.5q0 -140 -69 -248.5t-203 -207.5l-150 -112l445 -543q85 165 85 367
h228q0 -341 -163 -551l283 -345h-284l-145 174q-96 -98 -239.5 -150t-291.5 -52zM1186 345l-490 591l-76 -56q-65 -48 -114 -101t-74 -98t-36.5 -79t-11.5 -58q0 -149 113 -256.5t291 -107.5q107 0 210 43t188 122zM733 1248l135 100q97 63 144.5 128.5t47.5 163.5
q0 83 -71 153.5t-177 70.5q-112 0 -188 -81.5t-76 -182.5q0 -78 47.5 -160t137.5 -192z" />
    <glyph glyph-name="uni0027" unicode="'" horiz-adv-x="624" 
d="M420 2048v-704h-220v704h220z" />
    <glyph glyph-name="uni0028" unicode="(" horiz-adv-x="1020" 
d="M300 864q0 726 380 1280h208q-146 -201 -245 -564t-99 -716t99 -716t245 -564h-208q-380 554 -380 1280z" />
    <glyph glyph-name="uni0029" unicode=")" horiz-adv-x="1020" 
d="M720 864q0 -726 -380 -1280h-208q146 201 245 564t99 716t-99 716t-245 564h208q380 -554 380 -1280z" />
    <glyph glyph-name="uni002A" unicode="*" horiz-adv-x="1408" 
d="M608 896l16 440l-372 -236l-96 168l392 204l-392 204l96 168l372 -236l-16 440h192l-16 -440l372 236l96 -168l-392 -204l392 -204l-96 -168l-372 236l16 -440h-192z" />
    <glyph glyph-name="uni002B" unicode="+" horiz-adv-x="1856" 
d="M816 140v548h-548v224h548v548h224v-548h548v-224h-548v-548h-224z" />
    <glyph glyph-name="uni002C" unicode="," horiz-adv-x="788" 
d="M568 280l-16 -108q-39 -261 -184 -672h-180q85 415 112 668l12 112h256z" />
    <glyph glyph-name="uni002D" unicode="-" horiz-adv-x="1296" 
d="M1096 988v-220h-896v220h896z" />
    <glyph glyph-name="uni002E" unicode="." horiz-adv-x="776" 
d="M388 -16q-74 0 -127 53t-53 127t53 127t127 53t127 -53t53 -127t-53 -127t-127 -53z" />
    <glyph glyph-name="uni002F" unicode="/" horiz-adv-x="1004" 
d="M940 2144l-660 -2452h-216l660 2452h216z" />
    <glyph glyph-name="uni0030" unicode="0" horiz-adv-x="1760" 
d="M880 -28q-339 0 -525.5 275t-186.5 777q0 498 188 775t524 277t524 -277t188 -775q0 -502 -186.5 -777t-525.5 -275zM880 192q224 0 348 217t124 615t-124.5 617t-347.5 219t-347.5 -219t-124.5 -617t124 -615t348 -217z" />
    <glyph glyph-name="uni0031" unicode="1" horiz-adv-x="1308" 
d="M932 2048v-2048h-248v1788h-12l-500 -332v252l512 340h248z" />
    <glyph glyph-name="uni0032" unicode="2" horiz-adv-x="1704" 
d="M212 0v180l676 740q79 87 128 143.5t96 119.5t71 112t38.5 103t14.5 110q0 159 -111 255.5t-281 96.5q-177 0 -282.5 -106.5t-105.5 -281.5h-236q0 177 83 315.5t227 213.5t322 75q132 0 247.5 -44.5t196 -121t126.5 -181t46 -221.5q0 -170 -95.5 -333.5t-360.5 -446.5
l-460 -492v-16h952v-220h-1292z" />
    <glyph glyph-name="uni0033" unicode="3" horiz-adv-x="1792" 
d="M904 -28q-197 0 -352.5 67.5t-246 190.5t-97.5 282h252q11 -146 135 -233t305 -87q198 0 325 101t127 263q0 173 -127.5 278.5t-356.5 105.5h-164v220h164q184 0 298 97.5t114 258.5q0 156 -101.5 250t-270.5 94q-167 0 -288 -88t-128 -236h-240q6 157 96.5 281.5
t238.5 191.5t325 67q138 0 254 -45t192.5 -120.5t119 -174.5t42.5 -208q0 -172 -89.5 -294t-246.5 -170v-16q193 -32 302.5 -164t109.5 -328q0 -124 -52.5 -232.5t-144 -185.5t-220 -121.5t-275.5 -44.5z" />
    <glyph glyph-name="uni0034" unicode="4" horiz-adv-x="1808" 
d="M164 420v204l900 1424h300v-1408h280v-220h-280v-420h-236v420h-964zM1128 640v1092h-16l-680 -1076v-16h696z" />
    <glyph glyph-name="uni0035" unicode="5" horiz-adv-x="1712" 
d="M852 -28q-174 0 -317 69.5t-227.5 193t-91.5 277.5h240q14 -139 126.5 -229.5t269.5 -90.5q189 0 312.5 129.5t123.5 326.5q0 132 -58 239t-161.5 167.5t-232.5 61.5q-94 1 -193 -28.5t-163 -75.5l-232 28l124 1008h1064v-220h-856l-72 -604h12q65 52 160 84t196 32
q139 0 260 -52t207 -142.5t135.5 -218.5t49.5 -275q0 -145 -51 -271.5t-140.5 -216t-215 -141t-269.5 -51.5z" />
    <glyph glyph-name="uni0036" unicode="6" horiz-adv-x="1756" 
d="M892 -28q-75 1 -145.5 15t-142.5 47t-133.5 83.5t-116 128t-92.5 175.5t-60 231.5t-22 291.5q0 542 197.5 839t546.5 297q255 0 426.5 -149.5t209.5 -394.5h-244q-36 148 -136 236t-256 88q-239 0 -375 -208.5t-137 -583.5h16q85 128 216.5 200t287.5 72q130 0 248.5 -51
t205.5 -140t138.5 -216.5t51.5 -272.5q0 -142 -49.5 -268.5t-137 -220t-216.5 -147.5t-281 -52zM892 192q123 0 225.5 62.5t160.5 170t58 235.5q0 192 -125 326t-311 134q-124 0 -228.5 -64.5t-164 -171.5t-59.5 -228q0 -122 56.5 -228t159.5 -171t228 -65z" />
    <glyph glyph-name="uni0037" unicode="7" horiz-adv-x="1608" 
d="M276 0l916 1812v16h-1056v220h1312v-232l-912 -1816h-260z" />
    <glyph glyph-name="uni0038" unicode="8" horiz-adv-x="1736" 
d="M868 -28q-204 0 -363 73t-246.5 203.5t-86.5 295.5q-1 193 112.5 341t283.5 179v12q-146 37 -234 164t-86 292q-1 154 78.5 278.5t222 195t319.5 70.5q267 0 442.5 -155t177.5 -389q-2 -165 -89.5 -292t-230.5 -164v-12q167 -31 281 -179t115 -341q-2 -251 -196 -411.5
t-500 -160.5zM868 192q207 0 328.5 99t123.5 265q-1 114 -59.5 204.5t-161.5 141t-231 50.5q-198 0 -325.5 -111.5t-126.5 -284.5q-2 -166 120 -265t332 -99zM868 1164q166 0 272.5 97t107.5 255q-1 156 -105.5 250t-274.5 94q-173 0 -277 -94t-103 -250q-1 -158 105 -255
t275 -97z" />
    <glyph glyph-name="uni0039" unicode="9" horiz-adv-x="1756" 
d="M864 2080q75 -1 145.5 -15t142.5 -47.5t133.5 -83.5t116 -127.5t92.5 -175.5t60 -231.5t22 -291.5q0 -541 -198 -838.5t-546 -297.5q-256 0 -428 149.5t-208 394.5h244q34 -147 135 -235.5t257 -88.5q239 0 375.5 208.5t136.5 583.5h-16q-85 -128 -216 -200t-288 -72
q-131 0 -249 51t-205 140t-138.5 216.5t-51.5 272.5q0 142 49 268.5t136.5 220t217 147t281.5 52.5zM864 1860q-188 0 -316 -136t-128 -332q0 -194 124.5 -327t311.5 -133q123 0 228 65t164.5 171.5t59.5 227.5q0 122 -57 228t-160 171t-227 65z" />
    <glyph glyph-name="uni003A" unicode=":" horiz-adv-x="776" 
d="M388 -16q-74 0 -127 53t-53 127t53 127t127 53t127 -53t53 -127t-53 -127t-127 -53zM388 1124q-74 0 -127 53t-53 127t53 127t127 53t127 -53t53 -127t-53 -127t-127 -53z" />
    <glyph glyph-name="uni003B" unicode=";" horiz-adv-x="788" 
d="M568 280l-16 -108q-39 -261 -184 -672h-180q85 415 112 668l12 112h256zM424 1124q-74 0 -127 53t-53 127t53 127t127 53t127 -53t53 -127t-53 -127t-127 -53z" />
    <glyph glyph-name="uni003C" unicode="&#x3c;" horiz-adv-x="1856" 
d="M284 720v160l1288 656v-256l-980 -472v-16l980 -472v-256z" />
    <glyph glyph-name="uni003D" unicode="=" horiz-adv-x="1856" 
d="M312 396v216h1232v-216h-1232zM312 988v216h1232v-216h-1232z" />
    <glyph glyph-name="uni003E" unicode="&#x3e;" horiz-adv-x="1856" 
d="M1572 720l-1288 -656v256l980 472v16l-980 472v256l1288 -656v-160z" />
    <glyph glyph-name="uni003F" unicode="?" horiz-adv-x="1428" 
d="M524 576v12q1 112 16 199t39 147.5t66.5 111.5t86 84.5t108.5 73.5q95 57 151.5 144t56.5 200q0 144 -97.5 232t-242.5 88q-64 0 -121.5 -19t-106 -57.5t-80 -104.5t-36.5 -151h-252q7 166 88.5 290t213 187t294.5 63q261 0 420.5 -151.5t159.5 -388.5q0 -312 -280 -482
q-91 -57 -141.5 -116t-75.5 -142t-27 -208v-12h-240zM652 -16q-74 0 -127 53t-53 127t53 127t127 53t127 -53t53 -127t-53 -127t-127 -53z" />
    <glyph glyph-name="uni0040" unicode="@" horiz-adv-x="2636" 
d="M1396 -540q-610 0 -935 328t-325 936q0 388 146.5 669t424.5 430t661 149q218 0 404 -60.5t318 -164.5t226 -243t139 -296.5t45 -323.5q0 -95 -3.5 -170t-14.5 -166t-30.5 -160t-55 -137t-83 -112t-118.5 -71.5t-159 -27.5q-57 0 -116 12.5t-116.5 38.5t-98 73t-49.5 108
h-12q-19 -46 -51 -85t-79 -71.5t-115.5 -49.5t-150.5 -14q-169 6 -290 98t-179.5 242.5t-58.5 343.5q0 265 149 440.5t379 199.5q144 14 253 -30t131 -114h12v112h212v-904q0 -89 49 -150.5t135 -61.5q61 0 104.5 25.5t72.5 74.5t45.5 131.5t23 184t6.5 244.5
q0 113 -25.5 222t-75.5 209.5t-129 184.5t-180 147t-236 98t-290 35q-471 0 -735.5 -283.5t-264.5 -784.5q0 -513 269 -788.5t779 -275.5q212 0 524 104l56 -184q-101 -43 -272.5 -77.5t-315.5 -34.5zM1280 256q198 0 287 119.5t89 372.5q0 124 -23 209t-71.5 133.5t-114 69
t-159.5 20.5q-110 0 -193.5 -60t-125 -157t-41.5 -215q0 -100 19 -185.5t59 -156t110 -110.5t164 -40z" />
    <glyph glyph-name="uni0041" unicode="A" horiz-adv-x="1904" 
d="M332 0h-260l752 2048h256l752 -2048h-260l-206 580h-828zM616 800h672l-328 924h-16z" />
    <glyph glyph-name="uni0042" unicode="B" horiz-adv-x="1832" 
d="M248 0v2048h716q156 0 278 -42.5t197.5 -117.5t114 -172t38.5 -212q0 -337 -332 -428v-20q57 -4 115 -26.5t111.5 -66t94.5 -102.5t66 -141t25 -176q0 -118 -39.5 -215t-120 -172t-214 -116t-310.5 -41h-740zM496 220h492q230 0 339 89t109 235q0 162 -120.5 275
t-315.5 113h-504v-712zM496 1148h460q171 0 285.5 98.5t114.5 257.5q0 144 -98.5 234t-293.5 90h-468v-680z" />
    <glyph glyph-name="uni0043" unicode="C" horiz-adv-x="2048" 
d="M1896 1408h-248q-44 206 -204 321t-372 115q-140 0 -260.5 -54t-210.5 -155.5t-141.5 -258.5t-51.5 -352t51.5 -352t141.5 -258.5t210.5 -155.5t260.5 -54q212 0 372 115t204 321h248q-37 -206 -155 -358.5t-290.5 -231t-378.5 -78.5q-195 0 -362 74t-287 208.5
t-187.5 332.5t-67.5 437t67.5 437t187.5 332.5t287 208.5t362 74q206 0 378.5 -78.5t290.5 -231t155 -358.5z" />
    <glyph glyph-name="uni0044" unicode="D" horiz-adv-x="2024" 
d="M880 0h-632v2048h660q446 0 697 -271t251 -749q0 -483 -255.5 -755.5t-720.5 -272.5zM496 220h368q373 0 562.5 212t189.5 596q0 378 -185 589t-539 211h-396v-1608z" />
    <glyph glyph-name="uni0045" unicode="E" horiz-adv-x="1684" 
d="M248 0v2048h1236v-220h-988v-692h924v-220h-924v-696h1004v-220h-1252z" />
    <glyph glyph-name="uni0046" unicode="F" horiz-adv-x="1652" 
d="M248 0v2048h1228v-220h-980v-692h888v-220h-888v-916h-248z" />
    <glyph glyph-name="uni0047" unicode="G" horiz-adv-x="2092" 
d="M1648 1408q-67 206 -216.5 321t-367.5 115q-137 0 -256 -54t-208.5 -155.5t-140.5 -258.5t-51 -352t51.5 -352t142 -258.5t213 -155.5t265.5 -54q262 0 426.5 163t169.5 437h-540v220h780v-220q0 -249 -107 -439t-296.5 -291.5t-432.5 -101.5q-203 0 -372 74
t-288.5 208.5t-185.5 332t-66 437.5q0 239 66.5 437t184.5 332.5t283.5 208.5t361.5 74q213 0 391.5 -84t294.5 -235.5t154 -348.5h-256z" />
    <glyph glyph-name="uni0048" unicode="H" horiz-adv-x="2084" 
d="M248 0v2048h248v-912h1092v912h248v-2048h-248v916h-1092v-916h-248z" />
    <glyph glyph-name="uni0049" unicode="I" horiz-adv-x="744" 
d="M496 2048v-2048h-248v2048h248z" />
    <glyph glyph-name="uni004A" unicode="J" horiz-adv-x="1528" 
d="M1032 2048h248v-1464q0 -291 -156.5 -451.5t-427.5 -160.5q-168 0 -299 60.5t-206 177t-75 270.5h244q0 -129 94 -208.5t242 -79.5q161 0 248.5 101t87.5 291v1464z" />
    <glyph glyph-name="uni004B" unicode="K" horiz-adv-x="1836" 
d="M248 0v2048h248v-1016h24l920 1016h324l-860 -924l860 -1124h-300l-712 952l-256 -288v-664h-248z" />
    <glyph glyph-name="uni004C" unicode="L" horiz-adv-x="1584" 
d="M248 0v2048h248v-1828h952v-220h-1200z" />
    <glyph glyph-name="uni004D" unicode="M" horiz-adv-x="2504" 
d="M248 2048h296l696 -1700h24l696 1700h296v-2048h-232v1556h-20l-640 -1556h-224l-640 1556h-20v-1556h-232v2048z" />
    <glyph glyph-name="uni004E" unicode="N" horiz-adv-x="2120" 
d="M1872 2048v-2048h-240l-1116 1608h-20v-1608h-248v2048h240l1120 -1612h20v1612h244z" />
    <glyph glyph-name="uni004F" unicode="O" horiz-adv-x="2144" 
d="M1976 1024q0 -239 -67.5 -437t-187.5 -332.5t-287 -208.5t-362 -74t-362 74t-287 208.5t-187.5 332.5t-67.5 437t67.5 437t187.5 332.5t287 208.5t362 74t362 -74t287 -208.5t187.5 -332.5t67.5 -437zM1736 1024q0 195 -51.5 352t-141.5 258.5t-210.5 155.5t-260.5 54
t-260.5 -54t-210.5 -155.5t-141.5 -258.5t-51.5 -352t51.5 -352t141.5 -258.5t210.5 -155.5t260.5 -54t260.5 54t210.5 155.5t141.5 258.5t51.5 352z" />
    <glyph glyph-name="uni0050" unicode="P" horiz-adv-x="1788" 
d="M248 0v2048h692q176 0 311 -50t218 -139t125 -204.5t42 -254.5q0 -138 -42 -255t-124.5 -206.5t-217 -140t-308.5 -50.5h-448v-748h-248zM496 968h440q120 0 209.5 32.5t142.5 92t78.5 136t25.5 171.5t-25.5 171t-79 134.5t-143.5 90.5t-212 32h-436v-860z" />
    <glyph glyph-name="uni0051" unicode="Q" horiz-adv-x="2144" 
d="M1976 1024q0 -283 -92 -503.5t-259 -357.5l267 -355h-272l-179 240q-169 -76 -369 -76q-195 0 -362 74t-287 208.5t-187.5 332.5t-67.5 437t67.5 437t187.5 332.5t287 208.5t362 74t362 -74t287 -208.5t187.5 -332.5t67.5 -437zM992 640h272l218 -287q121 105 187.5 275
t66.5 396q0 195 -51.5 352t-141.5 258.5t-210.5 155.5t-260.5 54t-260.5 -54t-210.5 -155.5t-141.5 -258.5t-51.5 -352t51.5 -352t141.5 -258.5t210.5 -155.5t260.5 -54q118 0 224 38z" />
    <glyph glyph-name="uni0052" unicode="R" horiz-adv-x="1800" 
d="M248 0v2048h692q176 0 310.5 -47t218 -132t125.5 -198t42 -251q0 -210 -96 -359.5t-287 -214.5l463 -846h-288l-432 801q-17 -1 -52 -1h-448v-800h-248zM496 1024h440q238 0 347 102t109 294q0 408 -460 408h-436v-804z" />
    <glyph glyph-name="uni0053" unicode="S" horiz-adv-x="1796" 
d="M1368 1536q-18 149 -144.5 234.5t-315.5 85.5q-202 0 -327 -95.5t-125 -244.5q0 -53 18 -98.5t51.5 -79t70.5 -59.5t86.5 -46.5t86.5 -32.5t83 -24l208 -56q54 -14 99 -28.5t107 -40.5t110.5 -55.5t99 -74t84 -95.5t55 -121t21.5 -149q0 -125 -50 -232.5t-142.5 -188
t-233.5 -126t-314 -45.5q-325 0 -521.5 154t-214.5 410h256q10 -112 79.5 -190.5t172 -114t228.5 -35.5q216 0 358 103t142 269q0 59 -22.5 108t-57.5 82.5t-92 63t-109.5 48t-126.5 38.5l-252 72q-520 149 -520 532q0 168 93 299.5t252 202t355 70.5q195 0 351.5 -70.5
t246 -193.5t94.5 -276h-240z" />
    <glyph glyph-name="uni0054" unicode="T" horiz-adv-x="1808" 
d="M136 1828v220h1536v-220h-644v-1828h-248v1828h-644z" />
    <glyph glyph-name="uni0055" unicode="U" horiz-adv-x="2088" 
d="M1592 2048h248v-1356q0 -156 -57 -290.5t-159.5 -231t-252 -151.5t-327.5 -55t-327.5 55t-252 151.5t-159.5 231t-57 290.5v1356h248v-1336q0 -229 148 -372.5t400 -143.5t400 143.5t148 372.5v1336z" />
    <glyph glyph-name="uni0056" unicode="V" horiz-adv-x="1904" 
d="M332 2048l608 -1724h24l608 1724h260l-752 -2048h-256l-752 2048h260z" />
    <glyph glyph-name="uni0057" unicode="W" horiz-adv-x="2672" 
d="M620 0l-560 2048h252l428 -1668h20l436 1668h280l436 -1668h20l428 1668h252l-560 -2048h-256l-452 1632h-16l-452 -1632h-256z" />
    <glyph glyph-name="uni0058" unicode="X" horiz-adv-x="1808" 
d="M368 2048l528 -852h16l528 852h292l-644 -1024l644 -1024h-292l-528 836h-16l-528 -836h-292l660 1024l-660 1024h292z" />
    <glyph glyph-name="uni0059" unicode="Y" horiz-adv-x="1872" 
d="M72 2048h284l568 -956h24l568 956h284l-740 -1204v-844h-248v844z" />
    <glyph glyph-name="uni005A" unicode="Z" horiz-adv-x="1760" 
d="M180 0v180l1104 1648h-1116v220h1412v-180l-1104 -1648h1116v-220h-1412z" />
    <glyph glyph-name="uni005B" unicode="[" horiz-adv-x="1020" 
d="M332 -416v2560h592v-196h-368v-2168h368v-196h-592z" />
    <glyph glyph-name="uni005C" unicode="\" horiz-adv-x="1008" 
d="M88 2048h232l596 -2356h-232z" />
    <glyph glyph-name="uni005D" unicode="]" horiz-adv-x="1020" 
d="M688 2144v-2560h-592v196h368v2168h-368v196h592z" />
    <glyph glyph-name="uni005E" unicode="^" horiz-adv-x="1320" 
d="M112 1120l412 864h272l412 -864h-236l-305 652h-13l-302 -652h-240z" />
    <glyph glyph-name="uni005F" unicode="_" horiz-adv-x="1272" 
d="M1276 0v-220h-1280v220h1280z" />
    <glyph glyph-name="uni0060" unicode="`" horiz-adv-x="1400" 
d="M752 1744l-312 464h276l244 -464h-208z" />
    <glyph glyph-name="uni0061" unicode="a" horiz-adv-x="1588" 
d="M668 -36q-147 0 -265 54.5t-188.5 163t-70.5 254.5q0 73 19 133.5t48.5 103.5t78 77t95.5 55.5t113 38.5t118 26t124 18q39 5 87 10.5t76.5 8.5t63 8t54 9t42 10.5t33.5 14.5t21.5 19.5t14.5 26t4 33.5v8q0 150 -82 231t-242 81q-81 0 -149.5 -20t-116.5 -54.5
t-80.5 -73.5t-53.5 -84l-224 80q43 101 113 174t154.5 112t170 56.5t178.5 17.5q48 0 93.5 -4.5t104.5 -18.5t108.5 -37t99.5 -65t84.5 -97.5t56 -138t21.5 -183.5v-1012h-236v208h-12q-20 -41 -55 -80.5t-89 -78t-135.5 -62t-176.5 -23.5zM704 176q101 0 185 32t137 86
t81.5 121.5t28.5 140.5v216q-37 -44 -383 -85q-18 -2 -25 -3q-76 -10 -133 -26t-108.5 -45t-79 -76.5t-27.5 -112.5q0 -119 89 -183.5t235 -64.5z" />
    <glyph glyph-name="uni0062" unicode="b" horiz-adv-x="1748" 
d="M248 0v2048h236v-756h20q2 3 16.5 26t21 32.5t24.5 33.5t30.5 36t36 33.5t44.5 33t52 27t62.5 23.5t72 13.5t84.5 5.5q293 0 474.5 -216t181.5 -576q0 -240 -83 -421.5t-230.5 -278t-338.5 -96.5q-59 0 -111.5 10.5t-90 24t-75 40t-57.5 43.5t-46.5 50.5t-34 45.5
t-26.5 43q-5 8 -7 11h-28v-236h-228zM480 768q0 -267 115.5 -427.5t324.5 -160.5q108 0 194.5 45.5t141 125.5t83.5 186.5t29 230.5q0 123 -28.5 227t-83 182.5t-140.5 122.5t-196 44q-212 0 -326 -156t-114 -420z" />
    <glyph glyph-name="uni0063" unicode="c" horiz-adv-x="1572" 
d="M840 -32q-212 0 -371 102t-242 281t-83 409q0 232 85.5 413t243.5 282t363 101q243 0 410.5 -132t197.5 -348h-236q-29 114 -125 191t-243 77q-207 0 -333.5 -157.5t-126.5 -418.5q0 -267 125 -427.5t335 -160.5q138 0 236.5 71t131.5 197h236q-31 -210 -193.5 -345
t-410.5 -135z" />
    <glyph glyph-name="uni0064" unicode="d" horiz-adv-x="1748" 
d="M796 -32q-191 0 -338.5 96.5t-230.5 278t-83 421.5q0 360 181.5 576t474.5 216q44 0 84.5 -5.5t72 -13.5t62.5 -23.5t52 -27t44.5 -33t36 -33.5t30.5 -36t24.5 -33.5t21 -32.5t16.5 -26h20v756h236v-2048h-228v236h-28q-54 -87 -91 -126q-133 -142 -357 -142zM828 180
q209 0 324.5 160.5t115.5 427.5q0 264 -114 420t-326 156q-110 0 -196 -44t-140.5 -122.5t-83 -182.5t-28.5 -227q0 -124 29 -230.5t83.5 -186.5t141 -125.5t194.5 -45.5z" />
    <glyph glyph-name="uni0065" unicode="e" 
d="M860 -32q-330 0 -523 215.5t-193 572.5q0 175 50 323.5t139.5 253.5t219 164t283.5 59q100 0 192 -24.5t178.5 -82t150 -143.5t101.5 -219t38 -299v-100h-1115q8 -242 137.5 -375t341.5 -133q141 0 240.5 61t143.5 179l228 -64q-55 -177 -218 -282.5t-394 -105.5z
M381 892h875q0 198 -115.5 325t-304.5 127q-98 0 -182 -37t-141 -99.5t-91.5 -144t-40.5 -171.5z" />
    <glyph glyph-name="uni0066" unicode="f" horiz-adv-x="1016" 
d="M900 1536v-200h-344v-1336h-236v1336h-248v200h248v212q0 96 36.5 173t97.5 124.5t137.5 73t160.5 25.5q134 0 224 -40l-68 -204q-72 24 -132 24q-115 0 -167.5 -58t-52.5 -174v-156h344z" />
    <glyph glyph-name="uni0067" unicode="g" horiz-adv-x="1716" 
d="M836 -608q-124 0 -228 25t-179.5 69.5t-129 97t-91.5 116.5l188 132q60 -81 99 -116q129 -116 341 -116q195 0 311.5 93.5t116.5 278.5v312h-20q-53 -85 -91 -125q-130 -135 -357 -135q-140 0 -259 50.5t-206.5 144.5t-137 237.5t-49.5 319.5q0 233 83 410.5t231.5 273.5
t341.5 96q80 0 149 -19.5t109 -40.5t83.5 -65.5t55 -61t40.5 -61.5q8 -11 11 -16h24v244h228v-1580q0 -116 -34 -210.5t-93.5 -159.5t-143.5 -109t-182.5 -64.5t-210.5 -20.5zM828 236q211 0 325.5 143.5t114.5 400.5q0 256 -114.5 410t-325.5 154q-110 0 -196.5 -44
t-140.5 -121.5t-82.5 -178.5t-28.5 -220q0 -247 116 -395.5t332 -148.5z" />
    <glyph glyph-name="uni0068" unicode="h" horiz-adv-x="1664" 
d="M452 924v-924h-236v2048h236v-752h20q118 260 452 260q244 0 384 -146t140 -434v-976h-236v960q0 182 -94.5 283t-261.5 101q-179 0 -291.5 -112t-112.5 -308z" />
    <glyph glyph-name="uni0069" unicode="i" horiz-adv-x="668" 
d="M216 0v1536h236v-1536h-236zM336 1792q-69 0 -118.5 47t-49.5 113t49.5 113t118.5 47t118.5 -47t49.5 -113t-49.5 -113t-118.5 -47z" />
    <glyph glyph-name="uni006A" unicode="j" horiz-adv-x="668" 
d="M216 1536h236v-1648q0 -218 -111.5 -341t-328.5 -123h-48v220h44q208 0 208 244v1648zM332 1792q-69 0 -118.5 47t-49.5 113t49.5 113t118.5 47t118.5 -47t49.5 -113t-49.5 -113t-118.5 -47z" />
    <glyph glyph-name="uni006B" unicode="k" horiz-adv-x="1532" 
d="M216 0v2048h236v-1196h28l672 684h292l-649 -656l697 -880h-300l-575 728l-165 -153v-575h-236z" />
    <glyph glyph-name="uni006C" unicode="l" horiz-adv-x="668" 
d="M452 2048v-2048h-236v2048h236z" />
    <glyph glyph-name="uni006D" unicode="m" horiz-adv-x="2448" 
d="M216 0v1536h228v-240h20q48 124 155.5 192t256.5 68q292 0 412 -260h16q61 122 179.5 191t280.5 69q214 0 341 -133t127 -395v-1028h-236v1028q0 82 -25 144.5t-68.5 99t-98.5 54.5t-120 18q-158 0 -249 -96t-91 -248v-1000h-240v1052q0 131 -84.5 211.5t-219.5 80.5
q-142 0 -245 -109.5t-103 -274.5v-960h-236z" />
    <glyph glyph-name="uni006E" unicode="n" horiz-adv-x="1648" 
d="M452 924v-924h-236v1536h228v-240h20q56 122 168 191t280 69q241 0 380.5 -147t139.5 -433v-976h-236v960q0 180 -93.5 282t-258.5 102q-174 0 -283 -112t-109 -308z" />
    <glyph glyph-name="uni006F" unicode="o" horiz-adv-x="1680" 
d="M840 -32q-312 0 -504 217.5t-192 574.5q0 237 87 418t245 279.5t364 98.5t364 -98.5t245 -279.5t87 -418q0 -357 -192 -574.5t-504 -217.5zM840 180q115 0 204.5 47t144.5 128t83 184t28 221t-28 221.5t-83 185.5t-144.5 129.5t-204.5 47.5t-204.5 -47.5t-144.5 -129.5
t-83 -185.5t-28 -221.5t28 -221t83 -184t144.5 -128t204.5 -47z" />
    <glyph glyph-name="uni0070" unicode="p" horiz-adv-x="1716" 
d="M216 -576v2112h228v-244h28q2 3 16.5 26t21 32.5t24.5 33.5t30.5 36t36 33.5t44.5 33t52 27t62.5 23.5t72 13.5t84.5 5.5q293 0 474.5 -216t181.5 -576q0 -240 -83 -421.5t-230.5 -278t-338.5 -96.5q-59 0 -111.5 10.5t-90 24t-75 40t-57.5 43.5t-46.5 50.5t-34 45.5
t-26.5 43q-5 8 -7 11h-20v-812h-236zM448 768q0 -267 115.5 -427.5t324.5 -160.5q108 0 194.5 45.5t141 125.5t83.5 186.5t29 230.5q0 123 -28.5 227t-83 182.5t-140.5 122.5t-196 44q-212 0 -326 -156t-114 -420z" />
    <glyph glyph-name="uni0071" unicode="q" horiz-adv-x="1716" 
d="M1500 -576h-236v812h-20q-54 -87 -91 -126q-133 -142 -357 -142q-191 0 -338.5 96.5t-230.5 278t-83 421.5q0 360 181.5 576t474.5 216q44 0 84.5 -5.5t72 -13.5t62.5 -23.5t52 -27t44.5 -33t36 -33.5t30.5 -36t24.5 -33.5t21 -32.5t16.5 -26h28v244h228v-2112zM1268 768
q0 264 -114 420t-326 156q-110 0 -196 -44t-140.5 -122.5t-83 -182.5t-28.5 -227q0 -124 29 -230.5t83.5 -186.5t141 -125.5t194.5 -45.5q209 0 324.5 160.5t115.5 427.5z" />
    <glyph glyph-name="uni0072" unicode="r" horiz-adv-x="1048" 
d="M216 0v1536h228v-232h16q42 114 152 185t248 71q70 0 124 -4v-240q-64 16 -144 16q-168 0 -278 -102t-110 -258v-972h-236z" />
    <glyph glyph-name="uni0073" unicode="s" horiz-adv-x="1472" 
d="M1304 1192l-212 -60q-85 220 -332 220q-141 0 -234.5 -64.5t-93.5 -163.5q0 -87 62.5 -138.5t201.5 -85.5l228 -56q206 -50 307 -153t101 -263q0 -200 -167 -330t-433 -130q-238 0 -390.5 103t-193.5 297l224 56q63 -248 356 -248q161 0 260.5 69t99.5 171
q0 163 -228 216l-256 60q-408 95 -408 420q0 194 160 319t404 125q420 0 544 -364z" />
    <glyph glyph-name="uni0074" unicode="t" horiz-adv-x="1024" 
d="M884 1536v-200h-328v-896q0 -72 16.5 -120t47.5 -71.5t63.5 -32t76.5 -8.5t104 12l48 -212q-75 -28 -176 -28q-77 0 -149.5 25t-133 72t-97 124.5t-36.5 174.5v960h-232v200h232v368h236v-368h328z" />
    <glyph glyph-name="uni0075" unicode="u" horiz-adv-x="1636" 
d="M1184 628v908h236v-1536h-236v260h-16q-58 -125 -174.5 -202.5t-281.5 -77.5q-225 0 -360.5 148t-135.5 432v976h236v-960q0 -166 93.5 -267t242.5 -101q69 0 137 26t127 75.5t95.5 132.5t36.5 186z" />
    <glyph glyph-name="uni0076" unicode="v" horiz-adv-x="1568" 
d="M1472 1536l-568 -1536h-240l-568 1536h256l424 -1224h16l424 1224h256z" />
    <glyph glyph-name="uni0077" unicode="w" horiz-adv-x="2288" 
d="M564 0l-468 1536h248l332 -1176h16l328 1176h252l324 -1172h16l332 1172h248l-468 -1536h-232l-336 1180h-24l-336 -1180h-232z" />
    <glyph glyph-name="uni0078" unicode="x" horiz-adv-x="1520" 
d="M392 1536l368 -628l368 628h272l-496 -768l496 -768h-272l-368 596l-368 -596h-272l488 768l-488 768h272z" />
    <glyph glyph-name="uni0079" unicode="y" horiz-adv-x="1570" 
d="M368 -572q-116 0 -172 28l60 208q86 -22 152 -17t118.5 59t93.5 166l44 120l-568 1544h256l424 -1224h16l424 1224l258 -4l-654 -1756q-130 -348 -452 -348z" />
    <glyph glyph-name="uni007A" unicode="z" horiz-adv-x="1524" 
d="M172 0v180l872 1120v16h-844v220h1148v-188l-848 -1112v-16h876v-220h-1204z" />
    <glyph glyph-name="uni007B" unicode="{" horiz-adv-x="1020" 
d="M924 -416q-147 0 -246.5 31.5t-160.5 99t-87 165.5t-26 240v320q0 166 -67 235t-233 69v240q166 0 233 69t67 235v320q0 142 26 240t87 165.5t160.5 99t246.5 31.5v-196q-170 0 -237 -79.5t-67 -260.5v-400q0 -66 -12 -115t-42 -93t-86 -74.5t-140 -46.5v-30
q84 -16 140 -46.5t86 -74.5t42 -93t12 -115v-400q0 -181 67 -260.5t237 -79.5v-196z" />
    <glyph glyph-name="uni007C" unicode="|" horiz-adv-x="920" 
d="M560 2708v-3368h-200v3368h200z" />
    <glyph glyph-name="uni007D" unicode="}" horiz-adv-x="1020" 
d="M96 2144q147 0 246.5 -31.5t160.5 -99t87 -165.5t26 -240v-320q0 -166 67 -235t233 -69v-240q-166 0 -233 -69t-67 -235v-320q0 -142 -26 -240t-87 -165.5t-160.5 -99t-246.5 -31.5v196q170 0 237 79.5t67 260.5v400q0 66 12 115t42 93t86 74.5t140 46.5v30
q-84 16 -140 46.5t-86 74.5t-42 93t-12 115v400q0 181 -67 260.5t-237 79.5v196z" />
    <glyph glyph-name="uni007E" unicode="~" horiz-adv-x="1856" 
d="M232 608q-2 97 19.5 175t58.5 130.5t89 88t109 51t120 15.5q98 0 181.5 -42t198.5 -142q77 -67 121 -91.5t95 -24.5q87 0 136.5 63.5t47.5 180.5h216q2 -97 -19.5 -175t-58.5 -130.5t-89 -88t-109 -51t-120 -15.5q-98 0 -181.5 42t-198.5 142q-77 67 -121 91.5t-95 24.5
q-86 0 -136 -59.5t-48 -184.5h-216z" />
    <glyph glyph-name="uni00D7" horiz-adv-x="1856" 
d="M1416 160l-488 488l-488 -488l-152 152l488 488l-488 488l152 152l488 -488l488 488l152 -152l-488 -488l488 -488z" />
    <glyph glyph-name="uni0131" horiz-adv-x="668" 
d="M216 0v1536h236v-1536h-236z" />
    <glyph glyph-name="uni0237" horiz-adv-x="668" 
d="M216 1536h236v-1648q0 -218 -111.5 -341t-328.5 -123h-48v220h44q208 0 208 244v1648z" />
    <glyph glyph-name="uni0400" unicode="&#x400;" horiz-adv-x="1684" 
d="M248 0v2048h1236v-220h-988v-692h924v-220h-924v-696h1004v-220h-1252zM764 2256l-312 464h276l244 -464h-208z" />
    <glyph glyph-name="uni0401" unicode="&#x401;" horiz-adv-x="1684" 
d="M248 0v2048h1236v-220h-988v-692h924v-220h-924v-696h1004v-220h-1252zM576 2304q-63 0 -111.5 48.5t-48.5 111.5q0 68 48 114t112 46q69 0 114.5 -45.5t45.5 -114.5q0 -64 -46 -112t-114 -48zM1152 2304q-63 0 -111.5 48.5t-48.5 111.5q0 68 48 114t112 46
q69 0 114.5 -45.5t45.5 -114.5q0 -64 -46 -112t-114 -48z" />
    <glyph glyph-name="uni0402" unicode="&#x402;" horiz-adv-x="2276" 
d="M1672 2048v-220h-644v-661q214 61 384 61q335 0 527.5 -168t192.5 -460q0 -287 -184.5 -451.5t-507.5 -164.5l-4 220q209 0 328.5 104.5t119.5 287.5q0 192 -126 302t-346 110q-193 0 -384 -58v-950h-248v1828h-644v220h1536z" />
    <glyph glyph-name="uni0403" unicode="&#x403;" horiz-adv-x="1620" 
d="M1484 2048v-220h-988v-1828h-248v2048h1236zM760 2256l244 464h276l-312 -464h-208z" />
    <glyph glyph-name="uni0404" unicode="&#x404;" horiz-adv-x="1872" 
d="M1228 1124v-228h-812q2 -306 153.5 -501t386.5 -195q198 0 342.5 120.5t161.5 319.5h260q-19 -308 -228.5 -488t-535.5 -180q-228 0 -408 118.5t-280 331t-100 482.5v192q0 212 60.5 394.5t167.5 311t259 201.5t329 73q207 0 369.5 -80.5t259 -234.5t107.5 -361h-260
q-15 201 -152 322.5t-324 121.5q-161 0 -289 -91.5t-201 -255.5t-78 -373h812z" />
    <glyph glyph-name="uni0405" unicode="&#x405;" horiz-adv-x="1796" 
d="M1368 1536q-18 149 -144.5 234.5t-315.5 85.5q-202 0 -327 -95.5t-125 -244.5q0 -53 18 -98.5t51.5 -79t70.5 -59.5t86.5 -46.5t86.5 -32.5t83 -24l208 -56q54 -14 99 -28.5t107 -40.5t110.5 -55.5t99 -74t84 -95.5t55 -121t21.5 -149q0 -125 -50 -232.5t-142.5 -188
t-233.5 -126t-314 -45.5q-325 0 -521.5 154t-214.5 410h256q10 -112 79.5 -190.5t172 -114t228.5 -35.5q216 0 358 103t142 269q0 59 -22.5 108t-57.5 82.5t-92 63t-109.5 48t-126.5 38.5l-252 72q-520 149 -520 532q0 168 93 299.5t252 202t355 70.5q195 0 351.5 -70.5
t246 -193.5t94.5 -276h-240z" />
    <glyph glyph-name="uni0406" unicode="&#x406;" horiz-adv-x="744" 
d="M496 2048v-2048h-248v2048h248z" />
    <glyph glyph-name="uni0407" unicode="&#x407;" horiz-adv-x="744" 
d="M496 2048v-2048h-248v2048h248zM84 2304q-63 0 -111.5 48.5t-48.5 111.5q0 68 48 114t112 46q69 0 114.5 -45.5t45.5 -114.5q0 -64 -46 -112t-114 -48zM660 2304q-63 0 -111.5 48.5t-48.5 111.5q0 68 48 114t112 46q69 0 114.5 -45.5t45.5 -114.5q0 -64 -46 -112
t-114 -48z" />
    <glyph glyph-name="uni0408" unicode="&#x408;" horiz-adv-x="1528" 
d="M1032 2048h248v-1464q0 -291 -156.5 -451.5t-427.5 -160.5q-168 0 -299 60.5t-206 177t-75 270.5h244q0 -129 94 -208.5t242 -79.5q161 0 248.5 101t87.5 291v1464z" />
    <glyph glyph-name="uni0409" unicode="&#x409;" horiz-adv-x="3048" 
d="M56 0v228h56q70 0 119.5 21t91.5 74.5t68.5 148t44 239t24.5 349.5l36 988h1208v-860h520q325 0 502.5 -156.5t177.5 -427.5q0 -273 -178.5 -438.5t-501.5 -165.5h-768v1828h-720l-36 -816q-6 -139 -14.5 -244t-23.5 -207t-36 -175.5t-52 -140t-72 -109.5t-95 -75
t-122 -46.5t-153 -14.5h-76zM1704 968v-752h520q102 0 186 33t137.5 88t83 125t29.5 146q0 153 -116.5 256.5t-319.5 103.5h-520z" />
    <glyph glyph-name="uni040A" unicode="&#x40a;" horiz-adv-x="3180" 
d="M248 0v2048h248v-860h1092v860h248v-860h520q325 0 502.5 -156.5t177.5 -427.5q0 -273 -178.5 -438.5t-501.5 -165.5h-768v968h-1092v-968h-248zM1836 968v-752h520q102 0 186 33t137.5 88t83 125t29.5 146q0 153 -116.5 256.5t-319.5 103.5h-520z" />
    <glyph glyph-name="uni040B" unicode="&#x40b;" horiz-adv-x="2536" 
d="M1692 2048v-220h-692v-606q139 42 266.5 62t301.5 20q163 0 286 -34t212.5 -106.5t135.5 -192.5t46 -287v-684h-248v684q0 112 -29.5 190t-88 122.5t-135 64t-179.5 19.5q-283 0 -568 -83v-997h-248v1828h-616v220h1556z" />
    <glyph glyph-name="uni040C" unicode="&#x40c;" horiz-adv-x="1836" 
d="M248 0v2048h248v-1016h24l920 1016h324l-860 -924l860 -1124h-300l-712 952l-256 -288v-664h-248zM820 2256l244 464h276l-312 -464h-208z" />
    <glyph glyph-name="uni040D" unicode="&#x40d;" horiz-adv-x="2120" 
d="M248 2048h244v-1612h20l1120 1612h240v-2048h-248v1608h-20l-1116 -1608h-240v2048zM960 2256l-312 464h276l244 -464h-208z" />
    <glyph glyph-name="uni040E" unicode="&#x40e;" horiz-adv-x="1756" 
d="M356 -28v232h128q53 0 96.5 16.5t75 46.5t53 62.5t39.5 74.5l32 76l-708 1568h268l564 -1272l516 1272h264l-708 -1716q-21 -48 -37 -81t-41.5 -74t-50.5 -68t-62 -55t-78.5 -44.5t-97.5 -27t-121 -10.5h-132zM1068 2560h220q0 -164 -113 -266t-303 -102
q-187 0 -299.5 102t-112.5 266h220q0 -86 46.5 -141t145.5 -55t147.5 55.5t48.5 140.5z" />
    <glyph glyph-name="uni040F" unicode="&#x40f;" horiz-adv-x="2024" 
d="M248 0v2048h248v-1820h1032v1820h248v-2048h-640v-496h-248v496h-640z" />
    <glyph glyph-name="uni0410" unicode="&#x410;" horiz-adv-x="1904" 
d="M332 0h-260l752 2048h256l752 -2048h-260l-206 580h-828zM616 800h672l-328 924h-16z" />
    <glyph glyph-name="uni0411" unicode="&#x411;" horiz-adv-x="1856" 
d="M248 0v2048h1236v-220h-988v-640h520q325 0 502.5 -156.5t177.5 -427.5q0 -273 -178.5 -438.5t-501.5 -165.5h-768zM496 216h520q102 0 186 33t137.5 88t83 125t29.5 146q0 153 -116.5 256.5t-319.5 103.5h-520v-752z" />
    <glyph glyph-name="uni0412" unicode="&#x412;" horiz-adv-x="1832" 
d="M248 0v2048h716q156 0 278 -42.5t197.5 -117.5t114 -172t38.5 -212q0 -337 -332 -428v-20q57 -4 115 -26.5t111.5 -66t94.5 -102.5t66 -141t25 -176q0 -118 -39.5 -215t-120 -172t-214 -116t-310.5 -41h-740zM496 220h492q230 0 339 89t109 235q0 162 -120.5 275
t-315.5 113h-504v-712zM496 1148h460q171 0 285.5 98.5t114.5 257.5q0 144 -98.5 234t-293.5 90h-468v-680z" />
    <glyph glyph-name="uni0413" unicode="&#x413;" horiz-adv-x="1620" 
d="M1484 2048v-220h-988v-1828h-248v2048h1236z" />
    <glyph glyph-name="uni0414" unicode="&#x414;" horiz-adv-x="2116" 
d="M72 -496v716h132q55 50 99 122t84.5 184t67.5 278.5t37 379.5l44 864h1216v-1828h236v-712h-236v492h-1444v-496h-236zM500 220h1016v1608h-756l-32 -644q-35 -659 -228 -964z" />
    <glyph glyph-name="uni0415" unicode="&#x415;" horiz-adv-x="1684" 
d="M248 0v2048h1236v-220h-988v-692h924v-220h-924v-696h1004v-220h-1252z" />
    <glyph glyph-name="uni0416" unicode="&#x416;" horiz-adv-x="2672" 
d="M1460 2048v-908h252l532 908h300l-612 -984l664 -1064h-284l-556 908h-296v-908h-248v908h-296l-560 -908h-280l664 1068l-608 980h300l532 -908h248v908h248z" />
    <glyph glyph-name="uni0417" unicode="&#x417;" horiz-adv-x="1792" 
d="M904 -28q-197 0 -352.5 67.5t-246 190.5t-97.5 282h252q11 -146 135 -233t305 -87q198 0 325 101t127 263q0 173 -127.5 278.5t-356.5 105.5h-164v220h164q184 0 298 97.5t114 258.5q0 156 -101.5 250t-270.5 94q-167 0 -288 -88t-128 -236h-240q6 157 96.5 281.5
t238.5 191.5t325 67q138 0 254 -45t192.5 -120.5t119 -174.5t42.5 -208q0 -172 -89.5 -294t-246.5 -170v-16q193 -32 302.5 -164t109.5 -328q0 -124 -52.5 -232.5t-144 -185.5t-220 -121.5t-275.5 -44.5z" />
    <glyph glyph-name="uni0418" unicode="&#x418;" horiz-adv-x="2120" 
d="M248 2048h244v-1612h20l1120 1612h240v-2048h-248v1608h-20l-1116 -1608h-240v2048z" />
    <glyph glyph-name="uni0419" unicode="&#x419;" horiz-adv-x="2120" 
d="M248 2048h244v-1612h20l1120 1612h240v-2048h-248v1608h-20l-1116 -1608h-240v2048zM1256 2560h220q0 -164 -113 -266t-303 -102q-187 0 -299.5 102t-112.5 266h220q0 -86 46.5 -141t145.5 -55t147.5 55.5t48.5 140.5z" />
    <glyph glyph-name="uni041A" unicode="&#x41a;" horiz-adv-x="1820" 
d="M1452 0l-704 940h-252v-940h-248v2048h248v-888h108l820 888h296l-828 -900l856 -1148h-296z" />
    <glyph glyph-name="uni041B" unicode="&#x41b;" horiz-adv-x="2008" 
d="M72 0v228h60q77 0 132 29.5t93 88t62 161.5t37 233t20 320l36 988h1248v-2048h-248v1828h-764l-32 -816q-6 -147 -16 -259.5t-28.5 -222t-47 -188t-71 -146t-99.5 -109t-133.5 -64.5t-172.5 -23h-76z" />
    <glyph glyph-name="uni041C" unicode="&#x41c;" horiz-adv-x="2504" 
d="M248 2048h296l696 -1700h24l696 1700h296v-2048h-232v1556h-20l-640 -1556h-224l-640 1556h-20v-1556h-232v2048z" />
    <glyph glyph-name="uni041D" unicode="&#x41d;" horiz-adv-x="2084" 
d="M248 0v2048h248v-912h1092v912h248v-2048h-248v916h-1092v-916h-248z" />
    <glyph glyph-name="uni041E" unicode="&#x41e;" horiz-adv-x="2144" 
d="M1976 1024q0 -239 -67.5 -437t-187.5 -332.5t-287 -208.5t-362 -74t-362 74t-287 208.5t-187.5 332.5t-67.5 437t67.5 437t187.5 332.5t287 208.5t362 74t362 -74t287 -208.5t187.5 -332.5t67.5 -437zM1736 1024q0 195 -51.5 352t-141.5 258.5t-210.5 155.5t-260.5 54
t-260.5 -54t-210.5 -155.5t-141.5 -258.5t-51.5 -352t51.5 -352t141.5 -258.5t210.5 -155.5t260.5 -54t260.5 54t210.5 155.5t141.5 258.5t51.5 352z" />
    <glyph glyph-name="uni041F" unicode="&#x41f;" horiz-adv-x="2032" 
d="M1780 2048v-2048h-248v1828h-1032v-1828h-248v2048h1528z" />
    <glyph glyph-name="uni0420" unicode="&#x420;" horiz-adv-x="1788" 
d="M248 0v2048h692q176 0 311 -50t218 -139t125 -204.5t42 -254.5q0 -138 -42 -255t-124.5 -206.5t-217 -140t-308.5 -50.5h-448v-748h-248zM496 968h440q120 0 209.5 32.5t142.5 92t78.5 136t25.5 171.5t-25.5 171t-79 134.5t-143.5 90.5t-212 32h-436v-860z" />
    <glyph glyph-name="uni0421" unicode="&#x421;" horiz-adv-x="2048" 
d="M1896 1408h-248q-44 206 -204 321t-372 115q-140 0 -260.5 -54t-210.5 -155.5t-141.5 -258.5t-51.5 -352t51.5 -352t141.5 -258.5t210.5 -155.5t260.5 -54q212 0 372 115t204 321h248q-37 -206 -155 -358.5t-290.5 -231t-378.5 -78.5q-195 0 -362 74t-287 208.5
t-187.5 332.5t-67.5 437t67.5 437t187.5 332.5t287 208.5t362 74q206 0 378.5 -78.5t290.5 -231t155 -358.5z" />
    <glyph glyph-name="uni0422" unicode="&#x422;" horiz-adv-x="1808" 
d="M136 1828v220h1536v-220h-644v-1828h-248v1828h-644z" />
    <glyph glyph-name="uni0423" unicode="&#x423;" horiz-adv-x="1756" 
d="M356 -28v232h128q53 0 96.5 16.5t75 46.5t53 62.5t39.5 74.5l32 76l-708 1568h268l564 -1272l516 1272h264l-708 -1716q-21 -48 -37 -81t-41.5 -74t-50.5 -68t-62 -55t-78.5 -44.5t-97.5 -27t-121 -10.5h-132z" />
    <glyph glyph-name="uni0424" unicode="&#x424;" horiz-adv-x="2228" 
d="M952 1804h40v280h248v-280h36q169 0 314.5 -59t249 -164.5t162 -256.5t58.5 -328t-58.5 -329t-162 -257.5t-249 -165.5t-314.5 -60h-36v-268h-248v268h-40q-169 0 -314.5 59t-249 164.5t-162 256.5t-58.5 328t58.5 329t162 257.5t249 165.5t314.5 60zM952 1584
q-257 0 -396.5 -158.5t-139.5 -433.5q0 -272 139.5 -430t396.5 -158h40v1180h-40zM1240 1584v-1180h36q257 0 396.5 158.5t139.5 433.5q0 272 -139.5 430t-396.5 158h-36z" />
    <glyph glyph-name="uni0425" unicode="&#x425;" horiz-adv-x="1808" 
d="M368 2048l528 -852h16l528 852h292l-644 -1024l644 -1024h-292l-528 836h-16l-528 -836h-292l660 1024l-660 1024h292z" />
    <glyph glyph-name="uni0426" unicode="&#x426;" horiz-adv-x="2116" 
d="M1988 236l-28 -720h-256v484h-1456v2048h236v-1820h1056v1820h236v-1812h212z" />
    <glyph glyph-name="uni0427" unicode="&#x427;" horiz-adv-x="2012" 
d="M268 2048h248v-684q0 -112 29.5 -190t88 -122.5t135 -64t179.5 -19.5q283 0 568 83v997h248v-2048h-248v826q-139 -42 -266.5 -62t-301.5 -20q-163 0 -286 34t-212.5 106.5t-135.5 192.5t-46 287v684z" />
    <glyph glyph-name="uni0428" unicode="&#x428;" horiz-adv-x="2680" 
d="M248 2048h248v-1820h720v1820h248v-1820h720v1820h248v-2048h-2184v2048z" />
    <glyph glyph-name="uni0429" unicode="&#x429;" horiz-adv-x="2760" 
d="M2632 220l-28 -704h-244v484h-2112v2048h248v-1820h720v1820h248v-1820h720v1820h248v-1828h200z" />
    <glyph glyph-name="uni042A" unicode="&#x42a;" horiz-adv-x="2288" 
d="M136 1828v220h808v-860h520q325 0 502.5 -156.5t177.5 -427.5q0 -273 -178.5 -438.5t-501.5 -165.5h-768v1828h-560zM944 968v-752h520q102 0 186 33t137.5 88t83 125t29.5 146q0 153 -116.5 256.5t-319.5 103.5h-520z" />
    <glyph glyph-name="uni042B" unicode="&#x42b;" horiz-adv-x="2392" 
d="M496 1188h520q325 0 502.5 -156.5t177.5 -427.5q0 -273 -178.5 -438.5t-501.5 -165.5h-768v2048h248v-860zM496 968v-752h520q102 0 186 33t137.5 88t83 125t29.5 146q0 153 -116.5 256.5t-319.5 103.5h-520zM2144 2048v-2048h-248v2048h248z" />
    <glyph glyph-name="uni042C" unicode="&#x42c;" horiz-adv-x="1840" 
d="M496 1188h520q325 0 502.5 -156.5t177.5 -427.5q0 -273 -178.5 -438.5t-501.5 -165.5h-768v2048h248v-860zM496 968v-752h520q102 0 186 33t137.5 88t83 125t29.5 146q0 153 -116.5 256.5t-319.5 103.5h-520z" />
    <glyph glyph-name="uni042D" unicode="&#x42d;" horiz-adv-x="1888" 
d="M168 640h256q17 -112 51.5 -192.5t94 -139t149.5 -87.5t213 -29q126 0 227.5 55.5t166.5 152t100.5 221t37.5 267.5h-808v220h808v28q0 212 -66 373.5t-192.5 252t-297.5 90.5q-221 0 -337 -115.5t-147 -336.5h-256q15 149 68.5 271t143.5 213.5t224.5 141.5t303.5 50
q247 0 431.5 -116t282.5 -328t98 -492v-236q0 -279 -97.5 -490.5t-276 -326.5t-414.5 -115q-178 0 -318 51t-231.5 143t-144.5 210.5t-70 263.5z" />
    <glyph glyph-name="uni042E" unicode="&#x42e;" horiz-adv-x="2848" 
d="M496 2048v-932h379q13 219 85.5 400t190.5 303.5t278.5 189.5t346.5 67q195 0 362 -74t287 -208.5t187.5 -332.5t67.5 -437t-67.5 -437t-187.5 -332.5t-287 -208.5t-362 -74q-182 0 -340 64.5t-275.5 182.5t-192 291.5t-91.5 385.5h-381v-896h-248v2048h248zM2440 1024
q0 195 -51.5 352t-141.5 258.5t-210.5 155.5t-260.5 54t-260.5 -54t-210.5 -155.5t-141.5 -258.5t-51.5 -352t51.5 -352t141.5 -258.5t210.5 -155.5t260.5 -54t260.5 54t210.5 155.5t141.5 258.5t51.5 352z" />
    <glyph glyph-name="uni042F" unicode="&#x42f;" horiz-adv-x="1800" 
d="M1552 0h-248v800h-448q-35 0 -52 1l-432 -801h-288l463 846q-191 65 -287 214.5t-96 359.5q0 138 42 251t125.5 198t218 132t310.5 47h692v-2048zM1304 1024v804h-436q-460 0 -460 -408q0 -192 109 -294t347 -102h440z" />
    <glyph glyph-name="uni0430" unicode="&#x430;" horiz-adv-x="1588" 
d="M668 -36q-147 0 -265 54.5t-188.5 163t-70.5 254.5q0 73 19 133.5t48.5 103.5t78 77t95.5 55.5t113 38.5t118 26t124 18q39 5 87 10.5t76.5 8.5t63 8t54 9t42 10.5t33.5 14.5t21.5 19.5t14.5 26t4 33.5v8q0 150 -82 231t-242 81q-81 0 -149.5 -20t-116.5 -54.5
t-80.5 -73.5t-53.5 -84l-224 80q43 101 113 174t154.5 112t170 56.5t178.5 17.5q48 0 93.5 -4.5t104.5 -18.5t108.5 -37t99.5 -65t84.5 -97.5t56 -138t21.5 -183.5v-1012h-236v208h-12q-20 -41 -55 -80.5t-89 -78t-135.5 -62t-176.5 -23.5zM704 176q101 0 185 32t137 86
t81.5 121.5t28.5 140.5v216q-37 -44 -383 -85q-18 -2 -25 -3q-76 -10 -133 -26t-108.5 -45t-79 -76.5t-27.5 -112.5q0 -119 89 -183.5t235 -64.5z" />
    <glyph glyph-name="uni0431" unicode="&#x431;" horiz-adv-x="1660" 
d="M1356 2112l120 -144q-26 -25 -57.5 -44.5t-58 -33t-72 -23.5t-71 -15.5t-85 -10t-84.5 -5.5t-99 -4t-101 -4q-236 -9 -356 -163t-144 -457h20q75 139 211 209.5t301 70.5q136 0 251 -48.5t201.5 -139.5t135 -233t48.5 -319q0 -359 -187 -569.5t-497 -210.5
q-155 0 -281.5 55.5t-217 162.5t-140 271.5t-49.5 374.5v164q0 1034 700 1052q61 2 168 2q74 0 112 1t88 6t83.5 18.5t60.5 36.5zM832 180q208 0 328 153.5t120 414.5q0 251 -120 389.5t-332 138.5q-207 0 -325.5 -138.5t-122.5 -389.5q0 -259 121.5 -413.5t330.5 -154.5z
" />
    <glyph glyph-name="uni0432" unicode="&#x432;" horiz-adv-x="1580" 
d="M216 0v1536h628q246 0 393 -111.5t147 -296.5q0 -134 -79 -212.5t-217 -107.5q66 -10 127 -39.5t112 -77t82 -120t31 -159.5q0 -181 -135 -296.5t-365 -115.5h-724zM440 216h500q121 0 190.5 57.5t69.5 158.5q0 119 -69.5 187.5t-190.5 68.5h-500v-472zM440 892h404
q142 0 223 58.5t81 161.5q0 97 -81 152.5t-223 55.5h-404v-428z" />
    <glyph glyph-name="uni0433" unicode="&#x433;" horiz-adv-x="1292" 
d="M1164 1536v-220h-712v-1316h-236v1536h948z" />
    <glyph glyph-name="uni0434" unicode="&#x434;" horiz-adv-x="1756" 
d="M52 -440v660h128q65 68 104 147.5t66.5 212.5t45.5 348l52 608h976v-1316h236v-660h-236v440h-1136v-440h-236zM448 220h740v1096h-520l-40 -388q-28 -275 -66.5 -442.5t-113.5 -265.5z" />
    <glyph glyph-name="uni0435" unicode="&#x435;" 
d="M860 -32q-330 0 -523 215.5t-193 572.5q0 175 50 323.5t139.5 253.5t219 164t283.5 59q100 0 192 -24.5t178.5 -82t150 -143.5t101.5 -219t38 -299v-100h-1115q8 -242 137.5 -375t341.5 -133q141 0 240.5 61t143.5 179l228 -64q-55 -177 -218 -282.5t-394 -105.5z
M381 892h875q0 198 -115.5 325t-304.5 127q-98 0 -182 -37t-141 -99.5t-91.5 -144t-40.5 -171.5z" />
    <glyph glyph-name="uni0436" unicode="&#x436;" horiz-adv-x="2328" 
d="M120 0l624 780l-616 756h280l512 -656h128v656h236v-656h124l512 656h280l-612 -756l620 -780h-284l-520 660h-120v-660h-236v660h-120l-524 -660h-284z" />
    <glyph glyph-name="uni0437" unicode="&#x437;" horiz-adv-x="1392" 
d="M120 392h252q8 -103 93.5 -157.5t226.5 -54.5q98 0 173.5 24.5t123 82t47.5 141.5q0 115 -84 185.5t-224 70.5h-264v212h264q136 0 206 61.5t70 162.5q0 104 -74 166t-206 62q-135 0 -225 -60.5t-95 -155.5h-248q6 186 161 305t395 119q239 0 385.5 -121.5t146.5 -306.5
q0 -124 -70 -206t-186 -118v-16q128 -9 208 -111.5t80 -248.5q0 -138 -75 -243t-206.5 -161t-298.5 -56q-247 0 -408.5 118t-167.5 306z" />
    <glyph glyph-name="uni0438" unicode="&#x438;" horiz-adv-x="1680" 
d="M452 348l740 1188h272v-1536h-236v1188l-736 -1188h-276v1536h236v-1188z" />
    <glyph glyph-name="uni0439" unicode="&#x439;" horiz-adv-x="1680" 
d="M452 348l740 1188h272v-1536h-236v1188l-736 -1188h-276v1536h236v-1188zM1036 2048h220q0 -164 -113 -266t-303 -102q-187 0 -299.5 102t-112.5 266h220q0 -86 46.5 -141t145.5 -55t147.5 55.5t48.5 140.5z" />
    <glyph glyph-name="uni043A" unicode="&#x43a;" horiz-adv-x="1512" 
d="M216 0v1536h236v-668h156l552 668h304l-620 -740l628 -796h-304l-504 648h-212v-648h-236z" />
    <glyph glyph-name="uni043B" unicode="&#x43b;" horiz-adv-x="1660" 
d="M80 0v220h56q95 0 145 53t75.5 186t35.5 397l28 680h1024v-1536h-236v1316h-564l-24 -548q-7 -158 -23.5 -274.5t-50 -213t-84.5 -156t-126 -92t-176 -32.5h-80z" />
    <glyph glyph-name="uni043C" unicode="&#x43c;" horiz-adv-x="2112" 
d="M1056 320l536 1216h304v-1536h-236v1175l-508 -1175h-192l-508 1197v-1197h-236v1536h312z" />
    <glyph glyph-name="uni043D" unicode="&#x43d;" 
d="M452 1536v-660h736v660h236v-1536h-236v656h-736v-656h-236v1536h236z" />
    <glyph glyph-name="uni043E" unicode="&#x43e;" horiz-adv-x="1680" 
d="M840 -32q-312 0 -504 217.5t-192 574.5q0 237 87 418t245 279.5t364 98.5t364 -98.5t245 -279.5t87 -418q0 -357 -192 -574.5t-504 -217.5zM840 180q115 0 204.5 47t144.5 128t83 184t28 221t-28 221.5t-83 185.5t-144.5 129.5t-204.5 47.5t-204.5 -47.5t-144.5 -129.5
t-83 -185.5t-28 -221.5t28 -221t83 -184t144.5 -128t204.5 -47z" />
    <glyph glyph-name="uni043F" unicode="&#x43f;" 
d="M216 0v1536h1208v-1536h-236v1316h-736v-1316h-236z" />
    <glyph glyph-name="uni0440" unicode="&#x440;" horiz-adv-x="1716" 
d="M216 -576v2112h228v-244h28q2 3 16.5 26t21 32.5t24.5 33.5t30.5 36t36 33.5t44.5 33t52 27t62.5 23.5t72 13.5t84.5 5.5q293 0 474.5 -216t181.5 -576q0 -240 -83 -421.5t-230.5 -278t-338.5 -96.5q-59 0 -111.5 10.5t-90 24t-75 40t-57.5 43.5t-46.5 50.5t-34 45.5
t-26.5 43q-5 8 -7 11h-20v-812h-236zM448 768q0 -267 115.5 -427.5t324.5 -160.5q108 0 194.5 45.5t141 125.5t83.5 186.5t29 230.5q0 123 -28.5 227t-83 182.5t-140.5 122.5t-196 44q-212 0 -326 -156t-114 -420z" />
    <glyph glyph-name="uni0441" unicode="&#x441;" horiz-adv-x="1572" 
d="M840 -32q-212 0 -371 102t-242 281t-83 409q0 232 85.5 413t243.5 282t363 101q243 0 410.5 -132t197.5 -348h-236q-29 114 -125 191t-243 77q-207 0 -333.5 -157.5t-126.5 -418.5q0 -267 125 -427.5t335 -160.5q138 0 236.5 71t131.5 197h236q-31 -210 -193.5 -345
t-410.5 -135z" />
    <glyph glyph-name="uni0442" unicode="&#x442;" horiz-adv-x="1504" 
d="M128 1316v220h1248v-220h-504v-1316h-236v1316h-508z" />
    <glyph glyph-name="uni0443" unicode="&#x443;" horiz-adv-x="1570" 
d="M368 -572q-116 0 -172 28l60 208q86 -22 152 -17t118.5 59t93.5 166l44 120l-568 1544h256l424 -1224h16l424 1224l258 -4l-654 -1756q-130 -348 -452 -348z" />
    <glyph glyph-name="uni0444" unicode="&#x444;" horiz-adv-x="1916" 
d="M840 -524v492q-312 0 -504 217.5t-192 574.5q0 237 87 418t245 279.5t364 98.5v492h236v-492q206 0 364 -98.5t245 -279.5t87 -418q0 -357 -192 -574.5t-504 -217.5v-492h-236zM1076 180q115 0 204.5 47t144.5 128t83 184t28 221t-28 221.5t-83 185.5t-144.5 129.5
t-204.5 47.5v-1164zM840 180v1164q-115 0 -204.5 -47.5t-144.5 -129.5t-83 -185.5t-28 -221.5t28 -221t83 -184t144.5 -128t204.5 -47z" />
    <glyph glyph-name="uni0445" unicode="&#x445;" horiz-adv-x="1520" 
d="M392 1536l368 -628l368 628h272l-496 -768l496 -768h-272l-368 596l-368 -596h-272l488 768l-488 768h272z" />
    <glyph glyph-name="uni0446" unicode="&#x446;" horiz-adv-x="1788" 
d="M1424 1536v-1316h236v-716h-236v496h-1208v1536h236v-1316h736v1316h236z" />
    <glyph glyph-name="uni0447" unicode="&#x447;" horiz-adv-x="1616" 
d="M1400 1536v-1536h-236v536q-175 -52 -372 -52q-268 0 -422 144t-154 420v492h236v-492q0 -170 94 -257t246 -87q189 0 372 53v779h236z" />
    <glyph glyph-name="uni0448" unicode="&#x448;" horiz-adv-x="2300" 
d="M216 1536h236v-1316h580v1316h236v-1316h580v1316h236v-1536h-1868v1536z" />
    <glyph glyph-name="uni0449" unicode="&#x449;" horiz-adv-x="2440" 
d="M2312 220l-28 -660h-244v440h-1824v1536h236v-1316h580v1316h236v-1316h580v1316h236v-1316h228z" />
    <glyph glyph-name="uni044A" unicode="&#x44a;" horiz-adv-x="1844" 
d="M736 980h408q263 0 409.5 -134t146.5 -350q0 -215 -147.5 -355.5t-408.5 -140.5h-644v1316h-428v220h664v-556zM736 760v-540h408q140 0 230 74t90 190q0 121 -90 198.5t-230 77.5h-408z" />
    <glyph glyph-name="uni044B" unicode="&#x44b;" horiz-adv-x="2112" 
d="M452 980h408q263 0 409.5 -134t146.5 -350q0 -215 -147.5 -355.5t-408.5 -140.5h-644v1536h236v-556zM1660 0v1536h236v-1536h-236zM452 760v-540h408q140 0 230 74t90 190q0 121 -90 198.5t-230 77.5h-408z" />
    <glyph glyph-name="uni044C" unicode="&#x44c;" horiz-adv-x="1560" 
d="M452 980h408q263 0 409.5 -134t146.5 -350q0 -215 -147.5 -355.5t-408.5 -140.5h-644v1536h236v-556zM452 760v-540h408q140 0 230 74t90 190q0 121 -90 198.5t-230 77.5h-408z" />
    <glyph glyph-name="uni044D" unicode="&#x44d;" horiz-adv-x="1524" 
d="M724 1336q-80 -1 -160.5 -40t-134 -107.5t-53.5 -144.5h-232q0 130 82 249t216.5 191t281.5 72q123 0 229 -40.5t183.5 -111.5t133 -167t83 -209.5t27.5 -235.5v-56q0 -122 -27.5 -235.5t-83 -209.5t-133 -167t-183.5 -111.5t-229 -40.5q-124 0 -232 43.5t-184 117.5
t-120 176t-44 215h232q0 -130 106 -230t242 -102q88 1 163.5 41.5t127 108t83.5 150t42 172.5h-572v220h570q-12 88 -44.5 167.5t-83.5 143.5t-125 102t-161 39z" />
    <glyph glyph-name="uni044E" unicode="&#x44e;" horiz-adv-x="2288" 
d="M340 1536v-672h393q28 316 215.5 504t475.5 188q206 0 364 -98.5t245 -279.5t87 -418q0 -357 -192 -574.5t-504 -217.5q-285 0 -471.5 183.5t-218.5 492.5h-394v-644h-236v1536h236zM1424 180q115 0 204.5 47t144.5 128t83 184t28 221t-28 221.5t-83 185.5t-144.5 129.5
t-204.5 47.5t-204.5 -47.5t-144.5 -129.5t-83 -185.5t-28 -221.5t28 -221t83 -184t144.5 -128t204.5 -47z" />
    <glyph glyph-name="uni044F" unicode="&#x44f;" horiz-adv-x="1580" 
d="M1140 0v624h-412l-356 -624h-256l375 656q-139 48 -215 157.5t-76 266.5q0 212 142 334t390 122h632v-1536h-224zM1140 844v476h-408q-138 0 -217 -64t-79 -176q0 -110 71.5 -173t196.5 -63h436z" />
    <glyph glyph-name="uni0450" unicode="&#x450;" 
d="M860 -32q-330 0 -523 215.5t-193 572.5q0 175 50 323.5t139.5 253.5t219 164t283.5 59q100 0 192 -24.5t178.5 -82t150 -143.5t101.5 -219t38 -299v-100h-1115q8 -242 137.5 -375t341.5 -133q141 0 240.5 61t143.5 179l228 -64q-55 -177 -218 -282.5t-394 -105.5z
M381 892h875q0 198 -115.5 325t-304.5 127q-98 0 -182 -37t-141 -99.5t-91.5 -144t-40.5 -171.5zM724 1744l-312 464h276l244 -464h-208z" />
    <glyph glyph-name="uni0451" unicode="&#x451;" 
d="M860 -32q-330 0 -523 215.5t-193 572.5q0 175 50 323.5t139.5 253.5t219 164t283.5 59q100 0 192 -24.5t178.5 -82t150 -143.5t101.5 -219t38 -299v-100h-1115q8 -242 137.5 -375t341.5 -133q141 0 240.5 61t143.5 179l228 -64q-55 -177 -218 -282.5t-394 -105.5z
M381 892h875q0 198 -115.5 325t-304.5 127q-98 0 -182 -37t-141 -99.5t-91.5 -144t-40.5 -171.5zM536 1792q-63 0 -111.5 48.5t-48.5 111.5q0 68 48 114t112 46q69 0 114.5 -45.5t45.5 -114.5q0 -64 -46 -112t-114 -48zM1112 1792q-63 0 -111.5 48.5t-48.5 111.5
q0 68 48 114t112 46q69 0 114.5 -45.5t45.5 -114.5q0 -64 -46 -112t-114 -48z" />
    <glyph glyph-name="uni0452" unicode="&#x452;" horiz-adv-x="1664" 
d="M452 924v-924h-236v1700h-320v184h320v164h236v-164h324v-184h-324v-404h20q118 260 452 260q244 0 384 -146t140 -434v-1140q0 -192 -113 -302t-287 -110q-100 0 -136 12v200q40 -8 76 -8q224 0 224 208v1124q0 182 -94.5 283t-261.5 101q-179 0 -291.5 -112
t-112.5 -308z" />
    <glyph glyph-name="uni0453" unicode="&#x453;" horiz-adv-x="1292" 
d="M1164 1536v-220h-712v-1316h-236v1536h948zM576 1744l244 464h276l-312 -464h-208z" />
    <glyph glyph-name="uni0454" unicode="&#x454;" horiz-adv-x="1520" 
d="M840 852v-220h-551q31 -210 150.5 -331t300.5 -121q138 0 236.5 71t131.5 197h236q-31 -210 -193.5 -345t-410.5 -135q-211 0 -369.5 101.5t-242.5 282.5t-84 416q0 228 85.5 407t243.5 280t363 101q243 0 410.5 -132t197.5 -348h-236q-29 114 -125 191t-243 77
q-189 0 -312.5 -133.5t-143.5 -358.5h556z" />
    <glyph glyph-name="uni0455" unicode="&#x455;" horiz-adv-x="1472" 
d="M1304 1192l-212 -60q-85 220 -332 220q-141 0 -234.5 -64.5t-93.5 -163.5q0 -87 62.5 -138.5t201.5 -85.5l228 -56q206 -50 307 -153t101 -263q0 -200 -167 -330t-433 -130q-238 0 -390.5 103t-193.5 297l224 56q63 -248 356 -248q161 0 260.5 69t99.5 171
q0 163 -228 216l-256 60q-408 95 -408 420q0 194 160 319t404 125q420 0 544 -364z" />
    <glyph glyph-name="uni0456" unicode="&#x456;" horiz-adv-x="668" 
d="M216 0v1536h236v-1536h-236zM336 1792q-69 0 -118.5 47t-49.5 113t49.5 113t118.5 47t118.5 -47t49.5 -113t-49.5 -113t-118.5 -47z" />
    <glyph glyph-name="uni0457" unicode="&#x457;" horiz-adv-x="668" 
d="M216 0v1536h236v-1536h-236zM48 1792q-63 0 -111.5 48.5t-48.5 111.5q0 68 48 114t112 46q69 0 114.5 -45.5t45.5 -114.5q0 -64 -46 -112t-114 -48zM624 1792q-63 0 -111.5 48.5t-48.5 111.5q0 68 48 114t112 46q69 0 114.5 -45.5t45.5 -114.5q0 -64 -46 -112t-114 -48z
" />
    <glyph glyph-name="uni0458" unicode="&#x458;" horiz-adv-x="668" 
d="M216 1536h236v-1648q0 -218 -111.5 -341t-328.5 -123h-48v220h44q208 0 208 244v1648zM332 1792q-69 0 -118.5 47t-49.5 113t49.5 113t118.5 47t118.5 -47t49.5 -113t-49.5 -113t-118.5 -47z" />
    <glyph glyph-name="uni0459" unicode="&#x459;" horiz-adv-x="2600" 
d="M128 0v220h56q95 0 145 53t75 185.5t36 397.5l28 680h1024v-556h408q263 0 409.5 -134t146.5 -350q0 -215 -147.5 -355.5t-408.5 -140.5h-644v1316h-560l-28 -548q-8 -159 -25 -274.5t-50 -212.5t-83.5 -156.5t-125.5 -92t-176 -32.5h-80zM1492 760v-540h408
q140 0 230 74t90 190q0 121 -90 198.5t-230 77.5h-408z" />
    <glyph glyph-name="uni045A" unicode="&#x45a;" horiz-adv-x="2532" 
d="M216 0v1536h236v-596h736v596h236v-596h408q268 0 412 -116.5t144 -327.5q0 -215 -147.5 -355.5t-408.5 -140.5h-644v720h-736v-720h-236zM1424 720v-500h408q141 0 230.5 73.5t89.5 190.5q0 119 -86 177.5t-234 58.5h-408z" />
    <glyph glyph-name="uni045B" unicode="&#x45b;" horiz-adv-x="1664" 
d="M452 924v-924h-236v1700h-320v184h320v164h236v-164h324v-184h-324v-404h20q118 260 452 260q244 0 384 -146t140 -434v-976h-236v960q0 182 -94.5 283t-261.5 101q-179 0 -291.5 -112t-112.5 -308z" />
    <glyph glyph-name="uni045C" unicode="&#x45c;" horiz-adv-x="1512" 
d="M216 0v1536h236v-668h156l552 668h304l-620 -740l628 -796h-304l-504 648h-212v-648h-236zM648 1744l244 464h276l-312 -464h-208z" />
    <glyph glyph-name="uni045D" unicode="&#x45d;" horiz-adv-x="1680" 
d="M452 348l740 1188h272v-1536h-236v1188l-736 -1188h-276v1536h236v-1188zM740 1744l-312 464h276l244 -464h-208z" />
    <glyph glyph-name="uni045E" unicode="&#x45e;" horiz-adv-x="1570" 
d="M368 -572q-116 0 -172 28l60 208q86 -22 152 -17t118.5 59t93.5 166l44 120l-568 1544h256l424 -1224h16l424 1224l258 -4l-654 -1756q-130 -348 -452 -348zM980 2048h220q0 -164 -113 -266t-303 -102q-187 0 -299.5 102t-112.5 266h220q0 -86 46.5 -141t145.5 -55
t147.5 55.5t48.5 140.5z" />
    <glyph glyph-name="uni045F" unicode="&#x45f;" 
d="M1424 1536v-1536h-488v-492h-236v492h-484v1536h236v-1316h736v1316h236z" />
    <glyph glyph-name="uni0460" unicode="&#x460;" horiz-adv-x="2496" 
d="M248 544v1504h248v-1504q0 -165 89 -254.5t215 -89.5q147 0 235.5 88t88.5 256v1504h248v-1504q0 -168 82.5 -256t217.5 -88q138 0 233 89.5t95 254.5v1504h248v-1504q0 -140 -44.5 -250.5t-123.5 -180t-182.5 -105.5t-225.5 -36q-287 0 -424 196q-74 -97 -189 -146.5
t-259 -49.5q-121 0 -221.5 36t-174.5 105.5t-115 179.5t-41 251z" />
    <glyph glyph-name="uni0461" unicode="&#x461;" horiz-adv-x="2248" 
d="M216 480v1056h236v-1056q0 -138 77.5 -213t182.5 -75q126 0 211 74.5t85 213.5v1056h236v-1056q0 -141 75 -214.5t193 -73.5q115 0 199.5 75t84.5 213v1056h236v-1056q0 -165 -69 -281.5t-184.5 -171.5t-266.5 -55q-128 0 -228.5 48.5t-159.5 143.5
q-65 -95 -171.5 -143.5t-240.5 -48.5q-222 0 -359 131t-137 377z" />
    <glyph glyph-name="uni0462" unicode="&#x462;" horiz-adv-x="1840" 
d="M-48 1524v184h296v340h248v-340h336v-184h-336v-336h520q325 0 502.5 -156.5t177.5 -427.5q0 -273 -178.5 -438.5t-501.5 -165.5h-768v1524h-296zM496 968v-752h520q102 0 186 33t137.5 88t83 125t29.5 146q0 153 -116.5 256.5t-319.5 103.5h-520z" />
    <glyph glyph-name="uni0463" unicode="&#x463;" 
d="M1008 1724v-220h-476v-524h408q263 0 409.5 -134t146.5 -350q0 -215 -147.5 -355.5t-408.5 -140.5h-644v1504h-268v220h268v580h236v-580h476zM532 760v-540h408q140 0 230 74t90 190q0 121 -90 198.5t-230 77.5h-408z" />
    <glyph glyph-name="uni0464" unicode="&#x464;" horiz-adv-x="2672" 
d="M1828 1152v-220h-793q12 -174 67.5 -313t144 -229t203 -138t246.5 -48q212 0 372 115t204 321h248q-37 -206 -155 -358.5t-290.5 -231t-378.5 -78.5q-186 0 -346.5 67t-278.5 189.5t-190.5 303.5t-85.5 400h-299v-932h-248v2048h248v-896h301q17 212 91.5 385.5
t192 291.5t275.5 182.5t340 64.5q206 0 378.5 -78.5t290.5 -231t155 -358.5h-248q-44 206 -204 321t-372 115q-128 0 -240.5 -45.5t-200 -131t-144.5 -218t-73 -297.5h790z" />
    <glyph glyph-name="uni0465" unicode="&#x465;" horiz-adv-x="2288" 
d="M1548 852v-220h-611q31 -210 150.5 -331t300.5 -121q138 0 236.5 71t131.5 197h236q-31 -210 -193.5 -345t-410.5 -135q-286 0 -469 180.5t-219 483.5h-304v-632h-236v1536h236v-684h299q16 207 105 366t240.5 248.5t343.5 89.5q243 0 410.5 -132t197.5 -348h-236
q-29 114 -125 191t-243 77q-189 0 -312.5 -133.5t-143.5 -358.5h616z" />
    <glyph glyph-name="uni0466" unicode="&#x466;" horiz-adv-x="1776" 
d="M1436 0l-201 596h-215v-596h-276v596h-195l-205 -596h-292l720 2004h248l708 -2004h-292zM1155 832l-260 768l-264 -768h524z" />
    <glyph glyph-name="uni0467" unicode="&#x467;" horiz-adv-x="1520" 
d="M1204 0l-160 396h-144v-396h-272v396h-155l-157 -396h-280l604 1488h236l608 -1488h-280zM728 1040l-168 -424h395l-171 424l-28 106z" />
    <glyph glyph-name="uni0468" unicode="&#x468;" horiz-adv-x="2544" 
d="M2056 0l-201 596h-215v-596h-276v596h-195l-205 -596h-292l216 600h-476v-600h-248v2048h248v-1216h559l421 1172h248l708 -2004h-292zM1251 832h524l-260 768z" />
    <glyph glyph-name="uni0469" unicode="&#x469;" horiz-adv-x="2288" 
d="M1752 0l-160 396h-144v-396h-272v396h-155l-157 -396h-280l161 396h-317v-396h-236v1536h236v-920h406l354 872h236l608 -1488h-280zM1276 1040l-168 -424h395l-171 424l-28 106z" />
    <glyph glyph-name="uni046A" unicode="&#x46a;" horiz-adv-x="2288" 
d="M416 0h-284v508q0 325 172.5 470.5t503.5 145.5h42l-530 880h1672l-527 -880h15q163 0 286 -33.5t212.5 -106t135.5 -192t46 -284.5v-508h-288v508q0 112 -23.5 186.5t-74 118t-121 61.5t-173.5 18h-154l-34 -57v-835h-284v861l-19 31h-181q-102 0 -172 -18t-121 -61.5
t-75 -118.5t-24 -186v-508zM1149 1124h15l371 648h-758z" />
    <glyph glyph-name="uni046B" unicode="&#x46b;" horiz-adv-x="2032" 
d="M452 0h-276v220q0 312 146.5 456.5t427.5 154.5l-390 657h1328l-388 -657q272 -13 414 -158.5t142 -452.5v-220h-276v220q0 115 -20.5 191.5t-64.5 120.5t-105 62t-150 18h-68l-12 -20v-592h-276v606l-4 6h-84q-91 0 -152.5 -18t-106 -62.5t-65 -120.5t-20.5 -191v-220z
M1025 834l236 434h-473z" />
    <glyph glyph-name="uni046C" unicode="&#x46c;" horiz-adv-x="3312" 
d="M1212 0h-284v508q0 250 105 396h-509v220h1122l-530 880h1672l-527 -880h15q163 0 286 -33.5t212.5 -106t135.5 -192t46 -284.5v-508h-288v508q0 112 -23.5 186.5t-74 118t-121 61.5t-173.5 18h-154l-34 -57v-835h-284v861l-19 31h-181q-102 0 -172 -18t-121 -61.5
t-75 -118.5t-24 -186v-508zM512 2048v-2048h-248v2048h248zM1945 1124h15l371 648h-758z" />
    <glyph glyph-name="uni046D" unicode="&#x46d;" horiz-adv-x="2800" 
d="M436 1536v-704h994l-390 656h1328l-388 -657q272 -13 414 -158.5t142 -452.5v-220h-276v220q0 115 -20.5 191.5t-64.5 120.5t-105 62t-150 18h-68l-12 -20v-592h-276v606l-4 6h-84q-91 0 -152.5 -18t-106 -62.5t-65 -120.5t-20.5 -191v-220h-276v220q0 246 95 392h-515
v-612h-236v1536h236zM1705 834l236 434h-473z" />
    <glyph glyph-name="uni046E" unicode="&#x46e;" horiz-adv-x="1520" 
d="M248 2004h416q190 0 338 -65t233 -189.5t85 -289.5q0 -140 -88.5 -252.5t-244.5 -174.5q177 -57 271 -177t94 -296q0 -273 -182.5 -430.5t-473.5 -157.5h-68q-100 0 -148 -41t-48 -111q0 -52 21.5 -96t60 -75t69 -49t69.5 -36l-112 -180q-71 31 -132.5 71.5t-116.5 96
t-87 128t-32 152.5q0 183 123.5 271.5t344.5 88.5h56q176 0 278 102t102 262q0 181 -112.5 272.5t-327.5 91.5h-196v220h196q210 0 309 86t99 238q0 140 -97 230t-283 90h-416v220zM584 2588l240 -240l244 240h192v-16l-368 -376h-136l-364 376v16h192z" />
    <glyph glyph-name="uni046F" unicode="&#x46f;" horiz-adv-x="1264" 
d="M148 1488h416q173 0 308 -50.5t213.5 -148.5t78.5 -229q0 -99 -69 -180t-193 -130q143 -45 218.5 -128.5t75.5 -201.5q0 -139 -77.5 -241.5t-211.5 -154.5t-307 -52h-68q-103 0 -151.5 -41t-48.5 -111q0 -52 21.5 -96t60 -75t69 -49t69.5 -36l-112 -180q-69 31 -130 71.5
t-116 96t-88 128t-34 152.5q0 183 123.5 271.5t344.5 88.5h60q148 0 234 61t86 159q0 220 -384 220h-196v220h196q181 0 266.5 57t85.5 155q0 89 -83 146.5t-241 57.5h-416v220zM384 2112l240 -240l244 240h192v-16l-368 -376h-136l-364 376v16h192z" />
    <glyph glyph-name="uni0470" unicode="&#x470;" horiz-adv-x="2192" 
d="M1696 2048h248v-772q0 -171 -54 -311.5t-151 -237t-229 -154.5t-290 -72v-501h-248v501q-158 14 -290 72t-229 154.5t-151 237t-54 311.5v772h248v-772q0 -240 129.5 -382.5t346.5 -170.5v1325h248v-1325q217 28 346.5 170.5t129.5 382.5v772z" />
    <glyph glyph-name="uni0471" unicode="&#x471;" horiz-adv-x="2104" 
d="M216 1536h236v-716q0 -121 26.5 -220.5t73 -169t112.5 -119.5t141.5 -77t162.5 -37v1339h236v-1334q130 20 232.5 78t163.5 139t92.5 172.5t31.5 188.5q-6 180 -52.5 381t-119.5 375h252q66 -138 111 -341t45 -415q0 -122 -24.5 -231t-81.5 -208.5t-142.5 -174.5
t-215 -125t-292.5 -64v-633h-236v632q-177 13 -314 70t-236 159t-150.5 257.5t-51.5 357.5v716z" />
    <glyph glyph-name="uni0472" unicode="&#x472;" horiz-adv-x="2144" 
d="M1976 1024q0 -239 -67.5 -437t-187.5 -332.5t-287 -208.5t-362 -74t-362 74t-287 208.5t-187.5 332.5t-67.5 437t67.5 437t187.5 332.5t287 208.5t362 74t362 -74t287 -208.5t187.5 -332.5t67.5 -437zM1730 896q-66 -27 -128 -42.5t-124 -17.5t-108.5 0t-110.5 16
t-99 23.5t-103 29.5q-76 23 -118 34.5t-115.5 25t-130 14t-132 -10t-150.5 -36.5q12 -174 67.5 -313t144 -229t203 -138t246.5 -48q128 0 240.5 45.5t200 131t144.5 218t73 297.5zM1733 1120q-12 172 -68 310.5t-144 228.5t-202.5 137.5t-246.5 47.5q-128 0 -240 -45
t-199.5 -130.5t-144.5 -217t-74 -295.5q56 23 112.5 36.5t102 19.5t100.5 3t91 -7t91.5 -17t85 -21.5t87.5 -25.5q78 -23 119 -34t115.5 -24.5t131 -13.5t132.5 11t151 37z" />
    <glyph glyph-name="uni0473" unicode="&#x473;" horiz-adv-x="1680" 
d="M840 -32q-312 0 -504 217.5t-192 574.5q0 237 87 418t245 279.5t364 98.5t364 -98.5t245 -279.5t87 -418q0 -357 -192 -574.5t-504 -217.5zM840 180q102 0 184.5 37t137 103t88 150.5t44.5 185.5h-908q11 -101 44.5 -185.5t88 -150.5t137 -103t184.5 -37zM387 876h906
q-13 99 -46.5 182.5t-88 148t-136 101t-182.5 36.5t-182.5 -36.5t-136 -101t-88 -148t-46.5 -182.5z" />
    <glyph glyph-name="uni0474" unicode="&#x474;" horiz-adv-x="1972" 
d="M1440 1672q37 105 70.5 174t79.5 125.5t105 82.5t137 26h68v-228h-32q-33 0 -58 -10t-40.5 -22.5t-32.5 -45.5t-25.5 -55t-27.5 -75l-604 -1644h-256l-752 2048h260l608 -1724h24z" />
    <glyph glyph-name="uni0475" unicode="&#x475;" horiz-adv-x="1700" 
d="M96 1536h256l424 -1224h16l312 900q57 177 147 260.5t197 83.5q83 0 156 -28l-36 -216q-48 16 -88 16q-85 0 -132 -128l-444 -1200h-240z" />
    <glyph glyph-name="uni0476" unicode="&#x476;" horiz-adv-x="1972" 
d="M1440 1672q37 105 70.5 174t79.5 125.5t105 82.5t137 26h68v-228h-32q-33 0 -58 -10t-40.5 -22.5t-32.5 -45.5t-25.5 -55t-27.5 -75l-604 -1644h-256l-752 2048h260l608 -1724h24zM1098 2256l-244 464h300l150 -464h-206zM674 2256l-330 464h294l244 -464h-208z" />
    <glyph glyph-name="uni0477" unicode="&#x477;" horiz-adv-x="1700" 
d="M96 1536h256l424 -1224h16l312 900q57 177 147 260.5t197 83.5q83 0 156 -28l-36 -216q-48 16 -88 16q-85 0 -132 -128l-444 -1200h-240zM962 1744l-244 464h300l150 -464h-206zM538 1744l-330 464h294l244 -464h-208z" />
    <glyph glyph-name="uni0478" unicode="&#x478;" horiz-adv-x="3714" 
d="M1976 1024q0 -239 -67.5 -437t-187.5 -332.5t-287 -208.5t-362 -74t-362 74t-287 208.5t-187.5 332.5t-67.5 437t67.5 437t187.5 332.5t287 208.5t362 74t362 -74t287 -208.5t187.5 -332.5t67.5 -437zM1736 1024q0 195 -51.5 352t-141.5 258.5t-210.5 155.5t-260.5 54
t-260.5 -54t-210.5 -155.5t-141.5 -258.5t-51.5 -352t51.5 -352t141.5 -258.5t210.5 -155.5t260.5 -54t260.5 54t210.5 155.5t141.5 258.5t51.5 352zM2512 -572q-116 0 -172 28l60 208q86 -22 152 -17t118.5 59t93.5 166l44 120l-568 1544h256l424 -1224h16l424 1224l258 -4
l-654 -1756q-130 -348 -452 -348z" />
    <glyph glyph-name="uni0479" unicode="&#x479;" horiz-adv-x="3340" 
d="M840 -32q-312 0 -504 217.5t-192 574.5q0 237 87 418t245 279.5t364 98.5t364 -98.5t245 -279.5t87 -418q0 -357 -192 -574.5t-504 -217.5zM2968 1304l-540 -1532q-63 -176 -193 -274t-299 -98q-31 0 -95 7t-85 13v220q24 -8 116 -8q137 0 217.5 50t126.5 182l48 136
l-544 1536h256l408 -1188l360 1040l20 56q34 95 70 167t89.5 141t126.5 106.5t162 37.5q151 0 268 -96l-64 -164q-97 52 -168 52q-46 0 -81 -18.5t-66 -62.5t-55.5 -100t-57.5 -147zM840 180q115 0 204.5 47t144.5 128t83 184t28 221t-28 221.5t-83 185.5t-144.5 129.5
t-204.5 47.5t-204.5 -47.5t-144.5 -129.5t-83 -185.5t-28 -221.5t28 -221t83 -184t144.5 -128t204.5 -47z" />
    <glyph glyph-name="uni047A" unicode="&#x47a;" horiz-adv-x="2144" 
d="M1188 2296v-227q173 -21 318.5 -103t249.5 -215t162 -319.5t58 -407.5t-58 -407.5t-162 -319.5t-249.5 -215t-318.5 -103v-223h-232v223q-173 21 -318.5 103t-249.5 215t-162 319.5t-58 407.5t58 407.5t162 319.5t249.5 215t318.5 103v227h232zM1188 440v-226
q245 42 396.5 253.5t151.5 556.5t-151.5 556.5t-396.5 253.5v-222h-232v222q-245 -42 -396.5 -253.5t-151.5 -556.5t151.5 -556.5t396.5 -253.5v226h232z" />
    <glyph glyph-name="uni047B" unicode="&#x47b;" horiz-adv-x="1776" 
d="M932 1656v-107q269 -38 428.5 -250.5t159.5 -538.5q0 -324 -160 -535.5t-428 -249.5v-135h-276v147q-243 56 -385.5 262t-142.5 511q0 307 142.5 514t385.5 263v119h276zM932 352v-160q88 20 156.5 73.5t110.5 130t63.5 169t21.5 195.5q0 139 -36.5 256t-118 203
t-197.5 113v-188h-276v169q-143 -58 -217.5 -208t-74.5 -345q0 -127 31 -235t98 -192.5t163 -122.5v142h276z" />
    <glyph glyph-name="uni047C" unicode="&#x47c;" horiz-adv-x="2544" 
d="M804 2004v-232q-123 0 -197.5 -99.5t-74.5 -292.5v-784q0 -194 75 -295t197 -101q150 0 239 87.5t89 256.5v580h284v-580q0 -168 88.5 -256t235.5 -88q125 0 200.5 101t75.5 295v784q0 194 -75.5 293t-200.5 99v232q252 0 406 -161t154 -463v-784q0 -154 -41.5 -274
t-117 -196t-177 -115t-224.5 -39q-155 0 -275.5 58t-191.5 172q-71 -114 -192.5 -172t-276.5 -58q-121 0 -222.5 39t-177 115t-118 196t-42.5 274v784q0 152 42.5 272t118 196.5t177 116t222.5 39.5zM1824 2420h56v-184h-60q-108 0 -214 25.5t-174 56.5t-141 56.5t-123 25.5
q-67 0 -105.5 -34t-38.5 -106v-24h-188v48q0 152 85.5 226t242.5 74q59 0 122 -17t121 -41t119.5 -48t139 -41t158.5 -17zM1224 1820l-112 76q96 122 96 208v132h232v-140q0 -75 -69 -155t-147 -121z" />
    <glyph glyph-name="uni047D" unicode="&#x47d;" horiz-adv-x="2032" 
d="M1428 1284v220q108 0 197.5 -36t156.5 -104.5t104.5 -177t37.5 -246.5v-404q0 -275 -137 -419.5t-359 -144.5q-135 0 -240.5 49.5t-169.5 146.5q-64 -97 -171 -146.5t-243 -49.5q-222 0 -357 144.5t-135 419.5v404q0 273 135.5 418.5t356.5 145.5v-220q-100 0 -160 -88
t-60 -256v-404q0 -171 60 -257.5t160 -86.5q123 0 199.5 73.5t76.5 214.5v320h276v-320q0 -142 74.5 -215t197.5 -73q100 0 160 86.5t60 257.5v404q0 168 -60 256t-160 88zM1608 1928h60v-184h-64q-108 0 -213.5 25.5t-173 56.5t-140.5 56.5t-125 25.5q-67 0 -105.5 -34
t-38.5 -106v-24h-188v52q0 149 85.5 222.5t242.5 73.5q59 0 121.5 -17t120 -41t119 -48t139.5 -41t160 -17zM1012 1316l-112 76q92 117 92 208v132h232v-140q0 -75 -67 -155.5t-145 -120.5z" />
    <glyph glyph-name="uni047E" unicode="&#x47e;" horiz-adv-x="2496" 
d="M1124 2048h248v-1504q0 -168 82.5 -256t217.5 -88q66 0 124.5 21.5t105.5 63t74.5 108.5t27.5 151v1504h244v-1504q0 -140 -44.5 -250.5t-123.5 -180t-182.5 -105.5t-225.5 -36q-287 0 -426 196q-73 -97 -188 -146.5t-258 -49.5q-121 0 -221.5 36t-174.5 105.5
t-115 179.5t-41 251v1504h248v-1504q0 -165 89 -254.5t215 -89.5q147 0 235.5 88t88.5 256v1504zM1124 2352h-432v156h1132l4 -156h-456v-176h-248v176z" />
    <glyph glyph-name="uni047F" unicode="&#x47f;" horiz-adv-x="2032" 
d="M864 1488h276v-1008q0 -143 66.5 -215.5t181.5 -72.5q110 0 177 73t67 215v1008h276v-1008q0 -165 -69 -281.5t-184.5 -171.5t-266.5 -55q-128 0 -228 49t-161 145q-64 -96 -170.5 -145t-240.5 -49q-222 0 -359 131t-137 377v1008h276v-1008q0 -142 60 -215t160 -73
q123 0 199.5 73.5t76.5 214.5v1008zM940 1848h-428v156h1132l4 -156h-456v-172h-252v172z" />
    <glyph glyph-name="uni0480" unicode="&#x480;" horiz-adv-x="1776" 
d="M1068 200v-728h-284v508q-293 42 -472.5 274t-179.5 566v364q0 180 56.5 336.5t156 269.5t243.5 177.5t312 64.5q342 0 543 -181.5t201 -490.5h-284q0 207 -119 323.5t-341 116.5q-148 0 -259.5 -83.5t-168 -222.5t-56.5 -310v-364q0 -173 56.5 -313t168 -223.5
t259.5 -83.5h168z" />
    <glyph glyph-name="uni0481" unicode="&#x481;" horiz-adv-x="1520" 
d="M944 192v-720h-276v512q-124 23 -224.5 91t-165.5 166t-99.5 219.5t-34.5 255.5v56q0 149 44 283t125 237t206 163.5t277 60.5q167 0 301 -72t208.5 -195.5t74.5 -272.5h-260q0 131 -94 225.5t-230 94.5q-96 0 -171 -46t-118.5 -122.5t-65 -166.5t-21.5 -189v-56
q0 -78 12.5 -151.5t41.5 -142t71.5 -119t107 -81t143.5 -30.5h148z" />
    <glyph glyph-name="uni0482" unicode="&#x482;" horiz-adv-x="1776" 
d="M1120 1112l-284 -496l400 -236l-100 -176l-400 236l-248 -440h-240l308 548l-396 236l96 176l404 -236l276 496l-396 232l100 180l400 -236l252 448h236l-312 -556l404 -236l-104 -172z" />
    <glyph glyph-name="uni0483" unicode="&#x483;" horiz-adv-x="0" 
d="M-296 1804h-748v-172h-244v328h752v148h240v-304z" />
    <glyph glyph-name="uni0484" unicode="&#x484;" horiz-adv-x="0" 
d="M-1260 1976h60q82 0 160 17t139.5 41t119 48t120 41t121.5 17q156 0 242 -74.5t86 -221.5v-52h-188v24q0 69 -39 104.5t-105 35.5q-52 0 -125 -25.5t-140.5 -56.5t-173 -56.5t-213.5 -25.5h-64v184z" />
    <glyph glyph-name="uni0485" unicode="&#x485;" horiz-adv-x="0" 
d="M-692 1788l-228 276v168h260l-4 -192l84 -160z" />
    <glyph glyph-name="uni0486" unicode="&#x486;" horiz-adv-x="0" 
d="M-492 2064l-228 -276l-112 92l80 160l-4 192h264v-168z" />
    <glyph glyph-name="uni0487" unicode="&#x487;" horiz-adv-x="0" 
d="M-432 1976h220v-184h-240q-51 0 -99.5 17t-90 41t-86.5 48t-108 41t-136 17q-72 0 -126 -35.5t-54 -104.5v-24h-188v52q0 136 102.5 216t281.5 80q80 0 150 -17t118.5 -41t90.5 -48t84 -41t81 -17z" />
    <glyph glyph-name="uni0488" unicode="&#x488;" horiz-adv-x="0" 
d="M-1680 1360h-160q0 115 79.5 187.5t212.5 72.5t212.5 -72.5t79.5 -187.5h-156q0 62 -32.5 101t-103.5 39q-68 0 -100 -39t-32 -101zM-888 -436h-156q0 115 78.5 187.5t209.5 72.5q133 0 212.5 -72.5t79.5 -187.5h-156q0 60 -33 100t-103 40q-67 0 -99.5 -41t-32.5 -99z
M-80 1360h-156q0 116 77.5 188t210.5 72t212.5 -72.5t79.5 -187.5h-156q0 62 -32.5 101t-103.5 39q-68 0 -100 -39t-32 -101zM-1696 -44h-156q0 113 79 186.5t209 73.5q131 0 211.5 -72.5t80.5 -187.5h-156q0 60 -33 100t-103 40q-67 0 -99.5 -41t-32.5 -99zM-96 -44h-156
q0 113 79.5 186.5t212.5 73.5q131 0 209.5 -72.5t78.5 -187.5h-152q0 59 -34 99.5t-102 40.5t-102 -40.5t-34 -99.5zM176 672h-156q0 113 79 184.5t209 71.5q133 0 212.5 -71.5t79.5 -184.5h-156q0 60 -33 98t-103 38q-65 0 -98.5 -39t-33.5 -97zM-1924 672h-156
q0 113 79 184.5t209 71.5q133 0 212.5 -71.5t79.5 -184.5h-156q0 60 -33 98t-103 38q-67 0 -99.5 -39.5t-32.5 -96.5zM-896 1744h-156q0 113 79.5 184.5t212.5 71.5q130 0 209 -71.5t79 -184.5h-152q0 59 -34 97.5t-102 38.5q-70 0 -103 -39.5t-33 -96.5z" />
    <glyph glyph-name="uni0489" unicode="&#x489;" horiz-adv-x="0" 
d="M-1576 788v-192l-20 -16l-456 168v136zM24 676v192l20 16l456 -168v-136zM-828 -84h188l16 -20l-168 -464h-132zM-720 1548h-188l-16 20l168 464h132zM-248 84l132 136h24l204 -448l-88 -100zM-172 1244l-132 136v20l444 212l92 -96zM-1304 1316l-136 -132h-24l-200 452
l88 92zM-1380 164l132 -136v-20l-440 -212l-96 92z" />
    <glyph glyph-name="uni048A" unicode="&#x48a;" horiz-adv-x="2120" 
d="M248 2048h244v-1612h20l1120 1612h240v-1892h236v-188q-6 -271 -156 -496l-200 40q60 141 90 244.5t30 207.5v36h-248v1608h-20l-1116 -1608h-240v2048zM1256 2560h220q0 -164 -113 -266t-303 -102q-187 0 -299.5 102t-112.5 266h220q0 -86 46.5 -141t145.5 -55
t147.5 55.5t48.5 140.5z" />
    <glyph glyph-name="uni048B" unicode="&#x48b;" horiz-adv-x="1848" 
d="M452 348l740 1188h272v-1380h236v-188q-6 -271 -156 -496l-200 40q60 141 90 244.5t30 207.5v36h-236v1188l-736 -1188h-276v1536h236v-1188zM1036 2048h220q0 -164 -113 -266t-303 -102q-187 0 -299.5 102t-112.5 266h220q0 -86 46.5 -141t145.5 -55t147.5 55.5
t48.5 140.5z" />
    <glyph glyph-name="uni048C" unicode="&#x48c;" horiz-adv-x="1840" 
d="M-48 1524v184h296v340h248v-340h336v-184h-336v-336h520q325 0 502.5 -156.5t177.5 -427.5q0 -273 -178.5 -438.5t-501.5 -165.5h-768v1524h-296zM496 968v-752h520q102 0 186 33t137.5 88t83 125t29.5 146q0 153 -116.5 256.5t-319.5 103.5h-520z" />
    <glyph glyph-name="uni048D" unicode="&#x48d;" 
d="M1008 2004v-220h-476v-804h408q263 0 409.5 -134t146.5 -350q0 -215 -147.5 -355.5t-408.5 -140.5h-644v1784h-268v220h268v300h236v-300h476zM532 760v-540h408q140 0 230 74t90 190q0 121 -90 198.5t-230 77.5h-408z" />
    <glyph glyph-name="uni048E" unicode="&#x48e;" horiz-adv-x="1788" 
d="M248 0v2048h692q176 0 311 -50t218 -139t125 -204.5t42 -254.5q0 -160 -55.5 -291.5t-165.5 -219.5l137 -209l-184 -120l-148 227q-125 -39 -276 -39h-448v-748h-248zM1136 1316l149 -227q107 111 107 311q0 95 -25.5 171t-79 134.5t-143.5 90.5t-212 32h-436v-860h440
q85 0 156 17l-140 215z" />
    <glyph glyph-name="uni048F" unicode="&#x48f;" horiz-adv-x="1716" 
d="M216 -576v2112h228v-244h28q2 3 16.5 26t21 32.5t24.5 33.5t30.5 36t36 33.5t44.5 33t52 27t62.5 23.5t72 13.5t84.5 5.5q293 0 474.5 -216t181.5 -576q0 -357 -177 -574l153 -170l-160 -152l-160 178q-138 -78 -308 -78q-59 0 -111.5 10.5t-90 24t-75 40t-57.5 43.5
t-46.5 50.5t-34 45.5t-26.5 43q-5 8 -7 11h-20v-812h-236zM1084 536l151 -168q101 158 101 400q0 123 -28.5 227t-83 182.5t-140.5 122.5t-196 44q-212 0 -326 -156t-114 -420q0 -267 115.5 -427.5t324.5 -160.5q101 0 183 40l-147 164z" />
    <glyph glyph-name="uni0490" unicode="&#x490;" horiz-adv-x="1620" 
d="M248 0v2048h988v456h248v-676h-988v-1828h-248z" />
    <glyph glyph-name="uni0491" unicode="&#x491;" horiz-adv-x="1296" 
d="M1168 1916v-600h-716v-1316h-236v1536h716v380h236z" />
    <glyph glyph-name="uni0492" unicode="&#x492;" horiz-adv-x="1620" 
d="M1484 2048v-220h-988v-680h316v-184h-316v-964h-248v964h-316v184h316v900h1236z" />
    <glyph glyph-name="uni0493" unicode="&#x493;" horiz-adv-x="1292" 
d="M1164 1536v-220h-712v-456h324v-184h-324v-676h-236v676h-320v184h320v676h948z" />
    <glyph glyph-name="uni0494" unicode="&#x494;" horiz-adv-x="1752" 
d="M1484 2048v-220h-988v-688h284q400 0 614 -197.5t214 -590.5q0 -353 -171 -554.5t-485 -201.5l-4 216q140 0 235 71t138 190t43 279q0 291 -148 429.5t-436 138.5h-284v-920h-248v2048h1236z" />
    <glyph glyph-name="uni0495" unicode="&#x495;" horiz-adv-x="1520" 
d="M1164 1536v-220h-712v-424h192q203 0 362.5 -83.5t248.5 -233t89 -339.5q0 -155 -67.5 -289t-189 -223t-275.5 -116l-56 208q155 41 253.5 158.5t98.5 261.5q0 191 -130 313.5t-334 122.5h-192v-672h-236v1536h948z" />
    <glyph glyph-name="uni0496" unicode="&#x496;" horiz-adv-x="2672" 
d="M1460 2048v-908h252l532 908h300l-612 -984l527 -844h205v-716h-236v496h-116l-556 908h-296v-908h-248v908h-296l-560 -908h-280l664 1068l-608 980h300l532 -908h248v908h248z" />
    <glyph glyph-name="uni0497" unicode="&#x497;" horiz-adv-x="2328" 
d="M120 0l624 780l-616 756h280l512 -656h128v656h236v-656h124l512 656h280l-612 -756l456 -574v14h236v-716h-236v496h-120l-520 660h-120v-660h-236v660h-120l-524 -660h-284z" />
    <glyph glyph-name="uni0498" unicode="&#x498;" horiz-adv-x="1792" 
d="M994 -24l-10 -48q89 -14 148.5 -71t59.5 -165q0 -133 -109 -212.5t-311 -79.5l-8 156q99 0 157.5 31t58.5 97t-48 92.5t-168 35.5l34 165q-257 27 -418.5 172t-171.5 363h252q11 -146 135 -233t305 -87q198 0 325 101t127 263q0 173 -127.5 278.5t-356.5 105.5h-164v220
h164q184 0 298 97.5t114 258.5q0 156 -101.5 250t-270.5 94q-167 0 -288 -88t-128 -236h-240q6 157 96.5 281.5t238.5 191.5t325 67q138 0 254 -45t192.5 -120.5t119 -174.5t42.5 -208q0 -172 -89.5 -294t-246.5 -170v-16q193 -32 302.5 -164t109.5 -328q0 -231 -169 -392.5
t-433 -187.5z" />
    <glyph glyph-name="uni0499" unicode="&#x499;" horiz-adv-x="1392" 
d="M120 392h252q8 -103 93.5 -157.5t226.5 -54.5q98 0 173.5 24.5t123 82t47.5 141.5q0 115 -84 185.5t-224 70.5h-264v212h264q136 0 206 61.5t70 162.5q0 104 -74 166t-206 62q-135 0 -225 -60.5t-95 -155.5h-248q6 186 161 305t395 119q239 0 385.5 -121.5t146.5 -306.5
q0 -124 -70 -206t-186 -118v-16q128 -9 208 -111.5t80 -248.5q0 -188 -135.5 -311t-355.5 -145l-9 -44q89 -14 148.5 -71t59.5 -165q0 -133 -109 -212.5t-311 -79.5l-8 156q99 0 157.5 31t58.5 97t-48 92.5t-168 35.5l33 162q-206 26 -335 139t-134 279z" />
    <glyph glyph-name="uni049A" unicode="&#x49a;" horiz-adv-x="2008" 
d="M1452 0l-704 940h-252v-940h-248v2048h248v-888h108l820 888h296l-828 -900l692 -928h224v-716h-236v496h-120z" />
    <glyph glyph-name="uni049B" unicode="&#x49b;" horiz-adv-x="1652" 
d="M216 0v1536h236v-668h156l552 668h304l-620 -740l454 -576h226v-716h-236v496h-120l-504 648h-212v-648h-236z" />
    <glyph glyph-name="uni049C" unicode="&#x49c;" horiz-adv-x="1852" 
d="M664 1472h220v-344h96l476 920h288l-540 -1024l576 -1024h-276l-508 892h-112v-324h-220v324h-168v-892h-248v2048h248v-920h168v344z" />
    <glyph glyph-name="uni049D" unicode="&#x49d;" horiz-adv-x="1632" 
d="M216 0v1536h236v-668h144v280h220v-280h52l444 668h272l-500 -740l508 -796h-272l-404 648h-100v-280h-220v280h-144v-648h-236z" />
    <glyph glyph-name="uni04A0" unicode="&#x4a0;" horiz-adv-x="2100" 
d="M1732 0l-704 940h-252v-940h-248v1828h-504v220h752v-888h108l820 888h296l-828 -900l856 -1148h-296z" />
    <glyph glyph-name="uni04A1" unicode="&#x4a1;" horiz-adv-x="1976" 
d="M680 0v1316h-552v220h788v-668h156l552 668h304l-620 -740l628 -796h-304l-504 648h-212v-648h-236z" />
    <glyph glyph-name="uni04A2" unicode="&#x4a2;" horiz-adv-x="2160" 
d="M248 0v2048h248v-912h1092v912h248v-1828h212v-716h-236v496h-224v916h-1092v-916h-248z" />
    <glyph glyph-name="uni04A3" unicode="&#x4a3;" horiz-adv-x="1784" 
d="M452 1536v-660h736v660h236v-1316h232v-716h-236v496h-232v656h-736v-656h-236v1536h236z" />
    <glyph glyph-name="uni04A4" unicode="&#x4a4;" horiz-adv-x="2776" 
d="M2640 2048v-220h-804v-1828h-248v916h-1092v-916h-248v2048h248v-912h1092v912h1052z" />
    <glyph glyph-name="uni04A5" unicode="&#x4a5;" horiz-adv-x="2024" 
d="M1984 1536v-220h-560v-1316h-236v656h-736v-656h-236v1536h236v-660h736v660h796z" />
    <glyph glyph-name="uni04A6" unicode="&#x4a6;" horiz-adv-x="3056" 
d="M1700 2048v-908h288q400 0 614 -197.5t214 -590.5q0 -353 -171 -554.5t-485 -201.5l-4 216q140 0 235 71t138 190t43 279q0 291 -148 429.5t-436 138.5h-288v-920h-248v1828h-1032v-1828h-248v2048h1528z" />
    <glyph glyph-name="uni04A7" unicode="&#x4a7;" horiz-adv-x="2596" 
d="M216 0v1536h1208v-644h296q212 0 377.5 -78t260 -228t94.5 -350q0 -65 -17.5 -137.5t-58.5 -152t-100.5 -147t-152 -119.5t-203.5 -72l-72 212q182 47 275 156t93 260q0 130 -68.5 231t-180.5 153t-247 52h-296v-672h-236v1316h-736v-1316h-236z" />
    <glyph glyph-name="uni04A8" unicode="&#x4a8;" horiz-adv-x="2288" 
d="M2060 196v-236q-303 0 -547 102q-196 -90 -429 -90q-188 0 -349 73.5t-271.5 201.5t-173 304t-62.5 377v276q0 247 78 446t223 314.5t331 115.5v-240q-162 0 -273 -181.5t-111 -450.5v-280q0 -202 78 -366.5t217.5 -259t312.5 -94.5q85 0 158 16q-163 135 -250.5 325.5
t-87.5 418.5v352q0 213 70.5 385t201.5 271.5t300 99.5q168 0 297.5 -97t200 -270t70.5 -393v-380q0 -211 -74 -393.5t-211 -313.5q138 -33 301 -33zM1499 332q140 97 218.5 255t78.5 349v384q0 230 -92.5 375t-227.5 145q-134 0 -229 -148.5t-95 -367.5v-360
q0 -208 90 -370t257 -262z" />
    <glyph glyph-name="uni04A9" unicode="&#x4a9;" horiz-adv-x="1776" 
d="M1632 204v-220q-246 0 -443 79q-163 -91 -361 -91q-200 0 -356 108t-240 293.5t-84 414.5v112q0 185 60.5 333.5t171.5 233.5t252 85v-220q-100 0 -174 -125.5t-74 -306.5v-112q0 -164 58 -300.5t160 -216t226 -79.5q62 0 119 15q-129 110 -198 260.5t-69 324.5v176
q0 262 119.5 425t320.5 163q133 0 234 -81.5t153.5 -221t52.5 -313.5v-180q0 -310 -173 -527q114 -29 245 -29zM1161 332q77 79 120 189.5t43 238.5v184q0 172 -57.5 282t-146.5 110t-146.5 -102t-57.5 -262v-184q0 -142 64 -259.5t181 -196.5z" />
    <glyph glyph-name="uni04AA" unicode="&#x4aa;" horiz-adv-x="2048" 
d="M1896 1408h-248q-44 206 -204 321t-372 115q-140 0 -260.5 -54t-210.5 -155.5t-141.5 -258.5t-51.5 -352t51.5 -352t141.5 -258.5t210.5 -155.5t260.5 -54q212 0 372 115t204 321h248q-52 -287 -251.5 -463t-483.5 -201l-13 -64q89 -14 148.5 -71t59.5 -165
q0 -133 -109 -212.5t-311 -79.5l-8 156q99 0 157.5 31t58.5 97t-48 92.5t-168 35.5l37 182q-234 26 -413.5 158t-281.5 362t-102 526q0 239 67.5 437t187.5 332.5t287 208.5t362 74q206 0 378.5 -78.5t290.5 -231t155 -358.5z" />
    <glyph glyph-name="uni04AB" unicode="&#x4ab;" horiz-adv-x="1572" 
d="M917 -28l-9 -44q89 -14 148.5 -71t59.5 -165q0 -133 -109 -212.5t-311 -79.5l-8 156q99 0 157.5 31t58.5 97t-48 92.5t-168 35.5l34 165q-178 27 -309.5 134t-200 274t-68.5 375q0 232 85.5 413t243.5 282t363 101q243 0 410.5 -132t197.5 -348h-236q-29 114 -125 191
t-243 77q-207 0 -333.5 -157.5t-126.5 -418.5q0 -267 125 -427.5t335 -160.5q138 0 236.5 71t131.5 197h236q-28 -193 -168.5 -324t-358.5 -152z" />
    <glyph glyph-name="uni04AC" unicode="&#x4ac;" horiz-adv-x="1808" 
d="M136 1828v220h1536v-220h-644v-1608h232v-716h-236v496h-244v1828h-644z" />
    <glyph glyph-name="uni04AD" unicode="&#x4ad;" horiz-adv-x="1504" 
d="M128 1316v220h1248v-220h-504v-1104h236v-716h-236v504h-236v1316h-508z" />
    <glyph glyph-name="uni04AE" unicode="&#x4ae;" horiz-adv-x="1872" 
d="M72 2048h284l568 -956h24l568 956h284l-740 -1204v-844h-248v844z" />
    <glyph glyph-name="uni04AF" unicode="&#x4af;" horiz-adv-x="1504" 
d="M96 1536h256l404 -1168l396 1168h256l-536 -1504v-604h-236v604z" />
    <glyph glyph-name="uni04B0" unicode="&#x4b0;" horiz-adv-x="1872" 
d="M72 2048h284l568 -956h24l568 956h284l-701 -1140h277v-184h-316v-724h-248v724h-316v184h277z" />
    <glyph glyph-name="uni04B1" unicode="&#x4b1;" horiz-adv-x="1504" 
d="M96 1536h256l404 -1168l396 1168h256l-483 -1356h267v-184h-320v-568h-236v568h-324v184h271z" />
    <glyph glyph-name="uni04B2" unicode="&#x4b2;" horiz-adv-x="1808" 
d="M368 2048l528 -852h16l528 852h292l-644 -1024l506 -804h214v-716h-236v496h-132l-528 836h-16l-528 -836h-292l660 1024l-660 1024h292z" />
    <glyph glyph-name="uni04B3" unicode="&#x4b3;" horiz-adv-x="1520" 
d="M392 1536l368 -628l368 628h272l-496 -768l354 -548h222v-716h-236v496h-116l-368 596l-368 -596h-272l488 768l-488 768h272z" />
    <glyph glyph-name="uni04B4" unicode="&#x4b4;" horiz-adv-x="2540" 
d="M1448 2048v-220h-540v-1600h1056v1820h236v-1812h212l-28 -720h-256v484h-1456v1828h-536v220h1312z" />
    <glyph glyph-name="uni04B5" unicode="&#x4b5;" horiz-adv-x="2016" 
d="M1104 1536v-220h-372v-1096h736v1316h236v-1316h184l-28 -660h-244v440h-1120v1316h-368v220h976z" />
    <glyph glyph-name="uni04B6" unicode="&#x4b6;" horiz-adv-x="2012" 
d="M268 2048h248v-684q0 -112 29.5 -190t88 -122.5t135 -64t179.5 -19.5q283 0 568 83v997h248v-1828h236v-716h-236v496h-248v826q-139 -42 -266.5 -62t-301.5 -20q-163 0 -286 34t-212.5 106.5t-135.5 192.5t-46 287v684z" />
    <glyph glyph-name="uni04B7" unicode="&#x4b7;" horiz-adv-x="1764" 
d="M1400 1536v-1324h236v-716h-236v504h-236v536q-175 -52 -372 -52q-268 0 -422 144t-154 420v492h236v-492q0 -170 94 -257t246 -87q189 0 372 53v779h236z" />
    <glyph glyph-name="uni04B8" unicode="&#x4b8;" horiz-adv-x="2032" 
d="M1092 1392v-419q210 15 424 78v997h248v-2048h-248v826q-217 -66 -424 -78v-320h-220v318q-295 16 -449.5 163t-154.5 455v684h248v-684q0 -197 91 -288.5t265 -104.5v421h220z" />
    <glyph glyph-name="uni04B9" unicode="&#x4b9;" horiz-adv-x="1616" 
d="M916 1092v-383q120 11 248 48v779h236v-1536h-236v536q-122 -36 -248 -47v-173h-220v173q-225 25 -352.5 167.5t-127.5 391.5v492h236v-492q0 -141 66 -225t178 -109v378h220z" />
    <glyph glyph-name="uni04BA" unicode="&#x4ba;" horiz-adv-x="2012" 
d="M1744 0h-248v684q0 112 -29.5 190t-88 122.5t-135 64t-179.5 19.5q-283 0 -568 -83v-997h-248v2048h248v-826q139 42 266.5 62t301.5 20q163 0 286 -34t212.5 -106.5t135.5 -192.5t46 -287v-684z" />
    <glyph glyph-name="uni04BB" unicode="&#x4bb;" horiz-adv-x="1664" 
d="M452 924v-924h-236v2048h236v-752h20q118 260 452 260q244 0 384 -146t140 -434v-976h-236v960q0 182 -94.5 283t-261.5 101q-179 0 -291.5 -112t-112.5 -308z" />
    <glyph glyph-name="uni04BC" unicode="&#x4bc;" horiz-adv-x="2288" 
d="M176 1488h224q0 -122 56.5 -204.5t159.5 -112.5q1 422 202 663.5t550 241.5t548.5 -258.5t199.5 -709.5v-156h-1252v-116q0 -296 162.5 -466t445.5 -170q106 0 230 29t234 79l64 -208q-86 -61 -227 -96.5t-301 -35.5q-399 0 -627.5 232t-228.5 636v124
q-208 31 -324 169.5t-116 358.5zM864 1152h1004v44q0 302 -133.5 475t-366.5 173q-235 0 -369.5 -180.5t-134.5 -495.5v-16z" />
    <glyph glyph-name="uni04BD" unicode="&#x4bd;" horiz-adv-x="2052" 
d="M72 1180h216q0 -284 276 -288q36 301 220.5 482.5t463.5 181.5q100 0 192 -24.5t178.5 -82t150 -143.5t101.5 -219t38 -299v-100h-1115q8 -242 137.5 -375t341.5 -133q141 0 240.5 61t143.5 179l228 -64q-55 -177 -218 -282.5t-394 -105.5q-208 0 -366 89.5t-247 251.5
t-101 379q-238 4 -362 133.5t-124 358.5zM793 892h875q0 198 -115.5 325t-304.5 127q-98 0 -182 -37t-141 -99.5t-91.5 -144t-40.5 -171.5z" />
    <glyph glyph-name="uni04BE" unicode="&#x4be;" horiz-adv-x="2288" 
d="M176 1488h224q0 -122 56.5 -204.5t159.5 -112.5q1 422 202 663.5t550 241.5t548.5 -258.5t199.5 -709.5v-156h-1252v-116q0 -296 162.5 -466t445.5 -170q106 0 230 29t234 79l64 -208q-76 -54 -196 -88t-260 -42v-554h-236v563q-326 47 -509 272t-183 585v124
q-208 31 -324 169.5t-116 358.5zM864 1152h1004v44q0 302 -133.5 475t-366.5 173q-235 0 -369.5 -180.5t-134.5 -495.5v-16z" />
    <glyph glyph-name="uni04BF" unicode="&#x4bf;" horiz-adv-x="2052" 
d="M72 1180h216q0 -284 276 -288q36 301 220.5 482.5t463.5 181.5q100 0 192 -24.5t178.5 -82t150 -143.5t101.5 -219t38 -299v-100h-1115q8 -242 137.5 -375t341.5 -133q141 0 240.5 61t143.5 179l228 -64q-52 -166 -200.5 -270t-359.5 -117l-8 -41q89 -14 148.5 -71
t59.5 -165q0 -133 -109 -212.5t-311 -79.5l-8 156q99 0 157.5 31t58.5 97t-48 92.5t-168 35.5l34 168q-253 43 -404 231t-168 477q-238 4 -362 133.5t-124 358.5zM793 892h875q0 198 -115.5 325t-304.5 127q-98 0 -182 -37t-141 -99.5t-91.5 -144t-40.5 -171.5z" />
    <glyph glyph-name="uni04C0" unicode="&#x4c0;" horiz-adv-x="744" 
d="M496 2048v-2048h-248v2048h248z" />
    <glyph glyph-name="uni04C1" unicode="&#x4c1;" horiz-adv-x="2672" 
d="M1460 2048v-908h252l532 908h300l-612 -984l664 -1064h-284l-556 908h-296v-908h-248v908h-296l-560 -908h-280l664 1068l-608 980h300l532 -908h248v908h248zM1532 2560h220q0 -164 -113 -266t-303 -102q-187 0 -299.5 102t-112.5 266h220q0 -86 46.5 -141t145.5 -55
t147.5 55.5t48.5 140.5z" />
    <glyph glyph-name="uni04C2" unicode="&#x4c2;" horiz-adv-x="2328" 
d="M120 0l624 780l-616 756h280l512 -656h128v656h236v-656h124l512 656h280l-612 -756l620 -780h-284l-520 660h-120v-660h-236v660h-120l-524 -660h-284zM1360 2048h220q0 -164 -113 -266t-303 -102q-187 0 -299.5 102t-112.5 266h220q0 -86 46.5 -141t145.5 -55
t147.5 55.5t48.5 140.5z" />
    <glyph glyph-name="uni04C3" unicode="&#x4c3;" horiz-adv-x="1912" 
d="M248 0v2048h248v-896h236l708 896h312l-746 -901q338 -31 528 -242t190 -557q0 -353 -177 -554.5t-487 -201.5l-4 220q196 0 308 143t112 393q0 272 -155 428t-425 156h-400v-932h-248z" />
    <glyph glyph-name="uni04C4" unicode="&#x4c4;" 
d="M216 0v1536h236v-668h156l552 668h304l-564 -677q268 -35 432 -202t164 -409q0 -225 -148 -393.5t-380 -206.5l-60 196q157 38 256.5 151.5t99.5 252.5q0 176 -139 288t-357 112h-316v-648h-236z" />
    <glyph glyph-name="uni04C5" unicode="&#x4c5;" horiz-adv-x="2008" 
d="M72 0v228h60q77 0 132 29.5t93 88t62 161.5t37 233t20 320l36 988h1248v-1892h232v-188q-6 -271 -156 -496l-200 40q60 141 90 244.5t30 207.5v36h-244v1828h-764l-32 -816q-6 -147 -16 -259.5t-28.5 -222t-47 -188t-71 -146t-99.5 -109t-133.5 -64.5t-172.5 -23h-76z
" />
    <glyph glyph-name="uni04C6" unicode="&#x4c6;" horiz-adv-x="1828" 
d="M80 0v220h56q95 0 145 53t75.5 186t35.5 397l28 680h1024v-1380h236v-188q-6 -271 -156 -496l-200 40q60 141 90 244.5t30 207.5v36h-236v1316h-564l-24 -548q-7 -158 -23.5 -274.5t-50 -213t-84.5 -156t-126 -92t-176 -32.5h-80z" />
    <glyph glyph-name="uni04C7" unicode="&#x4c7;" horiz-adv-x="2084" 
d="M248 0v2048h248v-912h1092v912h248v-2212q0 -191 -116.5 -301.5t-291.5 -110.5q-100 0 -136 12v204q40 -8 76 -8q104 0 162 47.5t58 160.5v1076h-1092v-916h-248z" />
    <glyph glyph-name="uni04C8" unicode="&#x4c8;" 
d="M452 1536v-660h736v660h236v-1660q0 -229 -118 -352.5t-330 -123.5q-86 0 -156 20l20 216q37 -16 136 -16q85 0 148.5 70.5t63.5 185.5v780h-736v-656h-236v1536h236z" />
    <glyph glyph-name="uni04C9" unicode="&#x4c9;" horiz-adv-x="2184" 
d="M248 0v2048h248v-912h1092v912h248v-1892h236v-188q-6 -271 -156 -496l-200 40q60 141 90 244.5t30 207.5v36h-248v916h-1092v-916h-248z" />
    <glyph glyph-name="uni04CA" unicode="&#x4ca;" horiz-adv-x="1808" 
d="M452 1536v-660h736v660h236v-1380h236v-188q-6 -271 -156 -496l-200 40q60 141 90 244.5t30 207.5v36h-236v656h-736v-656h-236v1536h236z" />
    <glyph glyph-name="uni04CB" unicode="&#x4cb;" horiz-adv-x="2012" 
d="M268 2048h248v-684q0 -112 29.5 -190t88 -122.5t135 -64t179.5 -19.5q283 0 568 83v997h248v-1828h236v-716h-236v496h-248v826q-139 -42 -266.5 -62t-301.5 -20q-163 0 -286 34t-212.5 106.5t-135.5 192.5t-46 287v684z" />
    <glyph glyph-name="uni04CC" unicode="&#x4cc;" horiz-adv-x="1616" 
d="M1400 1536v-1536h-236v-504h-236v716h236v324q-175 -52 -372 -52q-268 0 -422 144t-154 420v492h236v-492q0 -170 94 -257t246 -87q189 0 372 53v779h236z" />
    <glyph glyph-name="uni04CD" unicode="&#x4cd;" horiz-adv-x="2504" 
d="M248 2048h296l696 -1700h24l696 1700h296v-1892h236v-188q-6 -271 -156 -496l-200 40q60 141 90 244.5t30 207.5v36h-232v1556h-20l-640 -1556h-224l-640 1556h-20v-1556h-232v2048z" />
    <glyph glyph-name="uni04CE" unicode="&#x4ce;" horiz-adv-x="2280" 
d="M1056 320l536 1216h304v-1380h236v-188q-6 -271 -156 -496l-200 40q60 141 90 244.5t30 207.5v36h-236v1175l-508 -1175h-192l-508 1197v-1197h-236v1536h312z" />
    <glyph glyph-name="uni04CF" unicode="&#x4cf;" horiz-adv-x="744" 
d="M496 2048v-2048h-248v2048h248z" />
    <glyph glyph-name="uni04D0" unicode="&#x4d0;" horiz-adv-x="1904" 
d="M332 0h-260l752 2048h256l752 -2048h-260l-206 580h-828zM616 800h672l-328 924h-16zM1148 2560h220q0 -164 -113 -266t-303 -102q-187 0 -299.5 102t-112.5 266h220q0 -86 46.5 -141t145.5 -55t147.5 55.5t48.5 140.5z" />
    <glyph glyph-name="uni04D1" unicode="&#x4d1;" horiz-adv-x="1588" 
d="M668 -36q-147 0 -265 54.5t-188.5 163t-70.5 254.5q0 73 19 133.5t48.5 103.5t78 77t95.5 55.5t113 38.5t118 26t124 18q39 5 87 10.5t76.5 8.5t63 8t54 9t42 10.5t33.5 14.5t21.5 19.5t14.5 26t4 33.5v8q0 150 -82 231t-242 81q-81 0 -149.5 -20t-116.5 -54.5
t-80.5 -73.5t-53.5 -84l-224 80q43 101 113 174t154.5 112t170 56.5t178.5 17.5q48 0 93.5 -4.5t104.5 -18.5t108.5 -37t99.5 -65t84.5 -97.5t56 -138t21.5 -183.5v-1012h-236v208h-12q-20 -41 -55 -80.5t-89 -78t-135.5 -62t-176.5 -23.5zM704 176q101 0 185 32t137 86
t81.5 121.5t28.5 140.5v216q-37 -44 -383 -85q-18 -2 -25 -3q-76 -10 -133 -26t-108.5 -45t-79 -76.5t-27.5 -112.5q0 -119 89 -183.5t235 -64.5zM1016 2048h220q0 -164 -113 -266t-303 -102q-187 0 -299.5 102t-112.5 266h220q0 -86 46.5 -141t145.5 -55t147.5 55.5
t48.5 140.5z" />
    <glyph glyph-name="uni04D2" unicode="&#x4d2;" horiz-adv-x="1904" 
d="M332 0h-260l752 2048h256l752 -2048h-260l-206 580h-828zM616 800h672l-328 924h-16zM664 2304q-63 0 -111.5 48.5t-48.5 111.5q0 68 48 114t112 46q69 0 114.5 -45.5t45.5 -114.5q0 -64 -46 -112t-114 -48zM1240 2304q-63 0 -111.5 48.5t-48.5 111.5q0 68 48 114t112 46
q69 0 114.5 -45.5t45.5 -114.5q0 -64 -46 -112t-114 -48z" />
    <glyph glyph-name="uni04D3" unicode="&#x4d3;" horiz-adv-x="1588" 
d="M668 -36q-147 0 -265 54.5t-188.5 163t-70.5 254.5q0 73 19 133.5t48.5 103.5t78 77t95.5 55.5t113 38.5t118 26t124 18q39 5 87 10.5t76.5 8.5t63 8t54 9t42 10.5t33.5 14.5t21.5 19.5t14.5 26t4 33.5v8q0 150 -82 231t-242 81q-81 0 -149.5 -20t-116.5 -54.5
t-80.5 -73.5t-53.5 -84l-224 80q43 101 113 174t154.5 112t170 56.5t178.5 17.5q48 0 93.5 -4.5t104.5 -18.5t108.5 -37t99.5 -65t84.5 -97.5t56 -138t21.5 -183.5v-1012h-236v208h-12q-20 -41 -55 -80.5t-89 -78t-135.5 -62t-176.5 -23.5zM704 176q101 0 185 32t137 86
t81.5 121.5t28.5 140.5v216q-37 -44 -383 -85q-18 -2 -25 -3q-76 -10 -133 -26t-108.5 -45t-79 -76.5t-27.5 -112.5q0 -119 89 -183.5t235 -64.5zM532 1792q-63 0 -111.5 48.5t-48.5 111.5q0 68 48 114t112 46q69 0 114.5 -45.5t45.5 -114.5q0 -64 -46 -112t-114 -48z
M1108 1792q-63 0 -111.5 48.5t-48.5 111.5q0 68 48 114t112 46q69 0 114.5 -45.5t45.5 -114.5q0 -64 -46 -112t-114 -48z" />
    <glyph glyph-name="uni04D4" unicode="&#x4d4;" horiz-adv-x="2788" 
d="M72 0l992 2048h1524v-220h-988v-692h924v-220h-924v-696h1004v-220h-1252v580h-735l-273 -580h-272zM720 800h632v1028h-148z" />
    <glyph glyph-name="uni04D5" unicode="&#x4d5;" horiz-adv-x="2604" 
d="M1824 -32q-204 0 -357 83.5t-227 228.5h-8q-46 -132 -206.5 -224t-357.5 -92q-147 0 -265 54.5t-188.5 163t-70.5 254.5q0 73 19 134t49 103.5t78 77t95 55.5t113 38t118.5 26t123.5 18q38 5 86.5 10.5t76.5 9t63.5 8t54.5 9t41.5 11t33.5 14.5t21.5 19.5t14.5 25.5t4 33
v8q0 149 -82 230.5t-242 81.5q-154 0 -254.5 -67.5t-145.5 -164.5l-224 80q43 101 113 174t154.5 112t170 56.5t178.5 17.5q65 0 126 -9t134 -33t137 -76t105 -127q172 245 494 245q100 0 192 -24.5t178.5 -82t150 -143.5t101.5 -219t38 -299v-100h-1115q8 -241 138 -374.5
t341 -133.5q141 0 240.5 61t143.5 179l228 -64q-55 -177 -218 -282.5t-394 -105.5zM704 176q101 0 185 32t137 86t81.5 121.5t28.5 140.5v216q-37 -44 -383 -85q-18 -2 -25 -3q-76 -10 -133 -26t-108.5 -45t-79 -76.5t-27.5 -112.5q0 -119 89 -183.5t235 -64.5zM1345 892
h875q0 198 -115.5 325t-304.5 127q-130 0 -232.5 -64t-158.5 -165.5t-64 -222.5z" />
    <glyph glyph-name="uni04D6" unicode="&#x4d6;" horiz-adv-x="1684" 
d="M248 0v2048h1236v-220h-988v-692h924v-220h-924v-696h1004v-220h-1252zM1060 2560h220q0 -164 -113 -266t-303 -102q-187 0 -299.5 102t-112.5 266h220q0 -86 46.5 -141t145.5 -55t147.5 55.5t48.5 140.5z" />
    <glyph glyph-name="uni04D7" unicode="&#x4d7;" 
d="M860 -32q-330 0 -523 215.5t-193 572.5q0 175 50 323.5t139.5 253.5t219 164t283.5 59q100 0 192 -24.5t178.5 -82t150 -143.5t101.5 -219t38 -299v-100h-1115q8 -242 137.5 -375t341.5 -133q141 0 240.5 61t143.5 179l228 -64q-55 -177 -218 -282.5t-394 -105.5z
M381 892h875q0 198 -115.5 325t-304.5 127q-98 0 -182 -37t-141 -99.5t-91.5 -144t-40.5 -171.5zM1020 2048h220q0 -164 -113 -266t-303 -102q-187 0 -299.5 102t-112.5 266h220q0 -86 46.5 -141t145.5 -55t147.5 55.5t48.5 140.5z" />
    <glyph glyph-name="uni04D8" unicode="&#x4d8;" horiz-adv-x="1948" 
d="M892 2076q215 0 389.5 -79t288 -217t174 -323t60.5 -401v-116q0 -168 -42 -319.5t-118.5 -268.5t-179.5 -203t-229 -131.5t-263 -45.5q-203 0 -360 64.5t-259.5 184.5t-155.5 289.5t-53 381.5v172h1372q-1 126 -23 238t-71 211.5t-120 171.5t-176 113.5t-234 41.5
q-109 0 -211 -18.5t-157 -37.5t-120 -48l-68 208q28 18 68.5 36.5t109.5 42t168.5 38.5t209.5 15zM1513 848h-1085v-44q0 -104 17 -191.5t57 -164.5t102 -130t155.5 -83.5t212.5 -30.5q156 0 275.5 86t185.5 229.5t80 328.5z" />
    <glyph glyph-name="uni04D9" unicode="&#x4d9;" 
d="M780 1568q330 0 523 -215.5t193 -572.5q0 -175 -50 -323.5t-139.5 -253.5t-219 -164t-283.5 -59q-100 0 -192 24.5t-178.5 82t-150 143.5t-101.5 219t-38 299v100h1115q-8 242 -137.5 375t-341.5 133q-141 0 -240.5 -61t-143.5 -179l-228 64q55 177 218 282.5t394 105.5z
M1259 644h-875q0 -198 115.5 -325t304.5 -127q98 0 182 37t141 99.5t91.5 144t40.5 171.5z" />
    <glyph glyph-name="uni04DA" unicode="&#x4da;" horiz-adv-x="1948" 
d="M892 2076q215 0 389.5 -79t288 -217t174 -323t60.5 -401v-116q0 -168 -42 -319.5t-118.5 -268.5t-179.5 -203t-229 -131.5t-263 -45.5q-203 0 -360 64.5t-259.5 184.5t-155.5 289.5t-53 381.5v172h1372q-1 126 -23 238t-71 211.5t-120 171.5t-176 113.5t-234 41.5
q-109 0 -211 -18.5t-157 -37.5t-120 -48l-68 208q28 18 68.5 36.5t109.5 42t168.5 38.5t209.5 15zM1513 848h-1085v-44q0 -104 17 -191.5t57 -164.5t102 -130t155.5 -83.5t212.5 -30.5q156 0 275.5 86t185.5 229.5t80 328.5zM684 2304q-63 0 -111.5 48.5t-48.5 111.5
q0 68 48 114t112 46q69 0 114.5 -45.5t45.5 -114.5q0 -64 -46 -112t-114 -48zM1260 2304q-63 0 -111.5 48.5t-48.5 111.5q0 68 48 114t112 46q69 0 114.5 -45.5t45.5 -114.5q0 -64 -46 -112t-114 -48z" />
    <glyph glyph-name="uni04DB" unicode="&#x4db;" 
d="M780 1568q330 0 523 -215.5t193 -572.5q0 -175 -50 -323.5t-139.5 -253.5t-219 -164t-283.5 -59q-100 0 -192 24.5t-178.5 82t-150 143.5t-101.5 219t-38 299v100h1115q-8 242 -137.5 375t-341.5 133q-141 0 -240.5 -61t-143.5 -179l-228 64q55 177 218 282.5t394 105.5z
M1259 644h-875q0 -198 115.5 -325t304.5 -127q98 0 182 37t141 99.5t91.5 144t40.5 171.5zM536 1792q-63 0 -111.5 48.5t-48.5 111.5q0 68 48 114t112 46q69 0 114.5 -45.5t45.5 -114.5q0 -64 -46 -112t-114 -48zM1112 1792q-63 0 -111.5 48.5t-48.5 111.5q0 68 48 114
t112 46q69 0 114.5 -45.5t45.5 -114.5q0 -64 -46 -112t-114 -48z" />
    <glyph glyph-name="uni04DC" unicode="&#x4dc;" horiz-adv-x="2672" 
d="M1460 2048v-908h252l532 908h300l-612 -984l664 -1064h-284l-556 908h-296v-908h-248v908h-296l-560 -908h-280l664 1068l-608 980h300l532 -908h248v908h248zM1048 2304q-63 0 -111.5 48.5t-48.5 111.5q0 68 48 114t112 46q69 0 114.5 -45.5t45.5 -114.5q0 -64 -46 -112
t-114 -48zM1624 2304q-63 0 -111.5 48.5t-48.5 111.5q0 68 48 114t112 46q69 0 114.5 -45.5t45.5 -114.5q0 -64 -46 -112t-114 -48z" />
    <glyph glyph-name="uni04DD" unicode="&#x4dd;" horiz-adv-x="2328" 
d="M120 0l624 780l-616 756h280l512 -656h128v656h236v-656h124l512 656h280l-612 -756l620 -780h-284l-520 660h-120v-660h-236v660h-120l-524 -660h-284zM876 1792q-63 0 -111.5 48.5t-48.5 111.5q0 68 48 114t112 46q69 0 114.5 -45.5t45.5 -114.5q0 -64 -46 -112
t-114 -48zM1452 1792q-63 0 -111.5 48.5t-48.5 111.5q0 68 48 114t112 46q69 0 114.5 -45.5t45.5 -114.5q0 -64 -46 -112t-114 -48z" />
    <glyph glyph-name="uni04DE" unicode="&#x4de;" horiz-adv-x="1792" 
d="M904 -28q-197 0 -352.5 67.5t-246 190.5t-97.5 282h252q11 -146 135 -233t305 -87q198 0 325 101t127 263q0 173 -127.5 278.5t-356.5 105.5h-164v220h164q184 0 298 97.5t114 258.5q0 156 -101.5 250t-270.5 94q-167 0 -288 -88t-128 -236h-240q6 157 96.5 281.5
t238.5 191.5t325 67q138 0 254 -45t192.5 -120.5t119 -174.5t42.5 -208q0 -172 -89.5 -294t-246.5 -170v-16q193 -32 302.5 -164t109.5 -328q0 -124 -52.5 -232.5t-144 -185.5t-220 -121.5t-275.5 -44.5zM616 2304q-63 0 -111.5 48.5t-48.5 111.5q0 68 48 114t112 46
q69 0 114.5 -45.5t45.5 -114.5q0 -64 -46 -112t-114 -48zM1192 2304q-63 0 -111.5 48.5t-48.5 111.5q0 68 48 114t112 46q69 0 114.5 -45.5t45.5 -114.5q0 -64 -46 -112t-114 -48z" />
    <glyph glyph-name="uni04DF" unicode="&#x4df;" horiz-adv-x="1392" 
d="M120 392h252q8 -103 93.5 -157.5t226.5 -54.5q98 0 173.5 24.5t123 82t47.5 141.5q0 115 -84 185.5t-224 70.5h-264v212h264q136 0 206 61.5t70 162.5q0 104 -74 166t-206 62q-135 0 -225 -60.5t-95 -155.5h-248q6 186 161 305t395 119q239 0 385.5 -121.5t146.5 -306.5
q0 -124 -70 -206t-186 -118v-16q128 -9 208 -111.5t80 -248.5q0 -138 -75 -243t-206.5 -161t-298.5 -56q-247 0 -408.5 118t-167.5 306zM416 1792q-63 0 -111.5 48.5t-48.5 111.5q0 68 48 114t112 46q69 0 114.5 -45.5t45.5 -114.5q0 -64 -46 -112t-114 -48zM992 1792
q-63 0 -111.5 48.5t-48.5 111.5q0 68 48 114t112 46q69 0 114.5 -45.5t45.5 -114.5q0 -64 -46 -112t-114 -48z" />
    <glyph glyph-name="uni04E0" unicode="&#x4e0;" horiz-adv-x="1768" 
d="M180 512h252q16 -152 138.5 -236t305.5 -84q199 0 325.5 100t126.5 284q0 86 -29.5 159.5t-89.5 133t-164 93.5t-241 34h-164v200l512 616v16h-872v220h1212v-180l-548 -664v-16q175 -8 318.5 -88.5t226.5 -218.5t83 -305q0 -263 -196.5 -433.5t-503.5 -170.5
q-184 0 -335.5 63t-248 187t-108.5 290z" />
    <glyph glyph-name="uni04E1" unicode="&#x4e1;" horiz-adv-x="1768" 
d="M180 0h252q16 -152 138.5 -236t305.5 -84q199 0 325.5 100t126.5 284q0 86 -29.5 159.5t-89.5 133t-164 93.5t-241 34h-164v200l512 616v16h-872v220h1212v-180l-548 -664v-16q175 -8 318.5 -88.5t226.5 -218.5t83 -305q0 -263 -196.5 -433.5t-503.5 -170.5
q-184 0 -335.5 63t-248 187t-108.5 290z" />
    <glyph glyph-name="uni04E2" unicode="&#x4e2;" horiz-adv-x="2120" 
d="M248 2048h244v-1612h20l1120 1612h240v-2048h-248v1608h-20l-1116 -1608h-240v2048zM1528 2560v-200h-936v200h936z" />
    <glyph glyph-name="uni04E3" unicode="&#x4e3;" horiz-adv-x="1680" 
d="M452 348l740 1188h272v-1536h-236v1188l-736 -1188h-276v1536h236v-1188zM1308 2048v-200h-936v200h936z" />
    <glyph glyph-name="uni04E4" unicode="&#x4e4;" horiz-adv-x="2120" 
d="M248 2048h244v-1612h20l1120 1612h240v-2048h-248v1608h-20l-1116 -1608h-240v2048zM772 2304q-63 0 -111.5 48.5t-48.5 111.5q0 68 48 114t112 46q69 0 114.5 -45.5t45.5 -114.5q0 -64 -46 -112t-114 -48zM1348 2304q-63 0 -111.5 48.5t-48.5 111.5q0 68 48 114t112 46
q69 0 114.5 -45.5t45.5 -114.5q0 -64 -46 -112t-114 -48z" />
    <glyph glyph-name="uni04E5" unicode="&#x4e5;" horiz-adv-x="1680" 
d="M452 348l740 1188h272v-1536h-236v1188l-736 -1188h-276v1536h236v-1188zM552 1792q-63 0 -111.5 48.5t-48.5 111.5q0 68 48 114t112 46q69 0 114.5 -45.5t45.5 -114.5q0 -64 -46 -112t-114 -48zM1128 1792q-63 0 -111.5 48.5t-48.5 111.5q0 68 48 114t112 46
q69 0 114.5 -45.5t45.5 -114.5q0 -64 -46 -112t-114 -48z" />
    <glyph glyph-name="uni04E6" unicode="&#x4e6;" horiz-adv-x="2144" 
d="M1976 1024q0 -239 -67.5 -437t-187.5 -332.5t-287 -208.5t-362 -74t-362 74t-287 208.5t-187.5 332.5t-67.5 437t67.5 437t187.5 332.5t287 208.5t362 74t362 -74t287 -208.5t187.5 -332.5t67.5 -437zM1736 1024q0 195 -51.5 352t-141.5 258.5t-210.5 155.5t-260.5 54
t-260.5 -54t-210.5 -155.5t-141.5 -258.5t-51.5 -352t51.5 -352t141.5 -258.5t210.5 -155.5t260.5 -54t260.5 54t210.5 155.5t141.5 258.5t51.5 352zM784 2304q-63 0 -111.5 48.5t-48.5 111.5q0 68 48 114t112 46q69 0 114.5 -45.5t45.5 -114.5q0 -64 -46 -112t-114 -48z
M1360 2304q-63 0 -111.5 48.5t-48.5 111.5q0 68 48 114t112 46q69 0 114.5 -45.5t45.5 -114.5q0 -64 -46 -112t-114 -48z" />
    <glyph glyph-name="uni04E7" unicode="&#x4e7;" horiz-adv-x="1680" 
d="M840 -32q-312 0 -504 217.5t-192 574.5q0 237 87 418t245 279.5t364 98.5t364 -98.5t245 -279.5t87 -418q0 -357 -192 -574.5t-504 -217.5zM840 180q115 0 204.5 47t144.5 128t83 184t28 221t-28 221.5t-83 185.5t-144.5 129.5t-204.5 47.5t-204.5 -47.5t-144.5 -129.5
t-83 -185.5t-28 -221.5t28 -221t83 -184t144.5 -128t204.5 -47zM552 1792q-63 0 -111.5 48.5t-48.5 111.5q0 68 48 114t112 46q69 0 114.5 -45.5t45.5 -114.5q0 -64 -46 -112t-114 -48zM1128 1792q-63 0 -111.5 48.5t-48.5 111.5q0 68 48 114t112 46q69 0 114.5 -45.5
t45.5 -114.5q0 -64 -46 -112t-114 -48z" />
    <glyph glyph-name="uni04E8" unicode="&#x4e8;" horiz-adv-x="2144" 
d="M1976 1024q0 -239 -67.5 -437t-187.5 -332.5t-287 -208.5t-362 -74t-362 74t-287 208.5t-187.5 332.5t-67.5 437t67.5 437t187.5 332.5t287 208.5t362 74t362 -74t287 -208.5t187.5 -332.5t67.5 -437zM1730 896q-66 -27 -128 -42.5t-124 -17.5t-108.5 0t-110.5 16
t-99 23.5t-103 29.5q-76 23 -118 34.5t-115.5 25t-130 14t-132 -10t-150.5 -36.5q12 -174 67.5 -313t144 -229t203 -138t246.5 -48q128 0 240.5 45.5t200 131t144.5 218t73 297.5zM1733 1120q-12 172 -68 310.5t-144 228.5t-202.5 137.5t-246.5 47.5q-128 0 -240 -45
t-199.5 -130.5t-144.5 -217t-74 -295.5q56 23 112.5 36.5t102 19.5t100.5 3t91 -7t91.5 -17t85 -21.5t87.5 -25.5q78 -23 119 -34t115.5 -24.5t131 -13.5t132.5 11t151 37z" />
    <glyph glyph-name="uni04E9" unicode="&#x4e9;" horiz-adv-x="1680" 
d="M840 -32q-312 0 -504 217.5t-192 574.5q0 237 87 418t245 279.5t364 98.5t364 -98.5t245 -279.5t87 -418q0 -357 -192 -574.5t-504 -217.5zM840 180q102 0 184.5 37t137 103t88 150.5t44.5 185.5h-908q11 -101 44.5 -185.5t88 -150.5t137 -103t184.5 -37zM387 876h906
q-13 99 -46.5 182.5t-88 148t-136 101t-182.5 36.5t-182.5 -36.5t-136 -101t-88 -148t-46.5 -182.5z" />
    <glyph glyph-name="uni04EA" unicode="&#x4ea;" horiz-adv-x="2144" 
d="M1976 1024q0 -239 -67.5 -437t-187.5 -332.5t-287 -208.5t-362 -74t-362 74t-287 208.5t-187.5 332.5t-67.5 437t67.5 437t187.5 332.5t287 208.5t362 74t362 -74t287 -208.5t187.5 -332.5t67.5 -437zM1730 896q-66 -27 -128 -42.5t-124 -17.5t-108.5 0t-110.5 16
t-99 23.5t-103 29.5q-76 23 -118 34.5t-115.5 25t-130 14t-132 -10t-150.5 -36.5q12 -174 67.5 -313t144 -229t203 -138t246.5 -48q128 0 240.5 45.5t200 131t144.5 218t73 297.5zM1733 1120q-12 172 -68 310.5t-144 228.5t-202.5 137.5t-246.5 47.5q-128 0 -240 -45
t-199.5 -130.5t-144.5 -217t-74 -295.5q56 23 112.5 36.5t102 19.5t100.5 3t91 -7t91.5 -17t85 -21.5t87.5 -25.5q78 -23 119 -34t115.5 -24.5t131 -13.5t132.5 11t151 37zM784 2304q-63 0 -111.5 48.5t-48.5 111.5q0 68 48 114t112 46q69 0 114.5 -45.5t45.5 -114.5
q0 -64 -46 -112t-114 -48zM1360 2304q-63 0 -111.5 48.5t-48.5 111.5q0 68 48 114t112 46q69 0 114.5 -45.5t45.5 -114.5q0 -64 -46 -112t-114 -48z" />
    <glyph glyph-name="uni04EB" unicode="&#x4eb;" horiz-adv-x="1680" 
d="M840 -32q-312 0 -504 217.5t-192 574.5q0 237 87 418t245 279.5t364 98.5t364 -98.5t245 -279.5t87 -418q0 -357 -192 -574.5t-504 -217.5zM840 180q102 0 184.5 37t137 103t88 150.5t44.5 185.5h-908q11 -101 44.5 -185.5t88 -150.5t137 -103t184.5 -37zM387 876h906
q-13 99 -46.5 182.5t-88 148t-136 101t-182.5 36.5t-182.5 -36.5t-136 -101t-88 -148t-46.5 -182.5zM552 1792q-63 0 -111.5 48.5t-48.5 111.5q0 68 48 114t112 46q69 0 114.5 -45.5t45.5 -114.5q0 -64 -46 -112t-114 -48zM1128 1792q-63 0 -111.5 48.5t-48.5 111.5
q0 68 48 114t112 46q69 0 114.5 -45.5t45.5 -114.5q0 -64 -46 -112t-114 -48z" />
    <glyph glyph-name="uni04EC" unicode="&#x4ec;" horiz-adv-x="1888" 
d="M168 640h256q17 -112 51.5 -192.5t94 -139t149.5 -87.5t213 -29q126 0 227.5 55.5t166.5 152t100.5 221t37.5 267.5h-808v220h808v28q0 212 -66 373.5t-192.5 252t-297.5 90.5q-221 0 -337 -115.5t-147 -336.5h-256q15 149 68.5 271t143.5 213.5t224.5 141.5t303.5 50
q247 0 431.5 -116t282.5 -328t98 -492v-236q0 -279 -97.5 -490.5t-276 -326.5t-414.5 -115q-178 0 -318 51t-231.5 143t-144.5 210.5t-70 263.5zM656 2304q-63 0 -111.5 48.5t-48.5 111.5q0 68 48 114t112 46q69 0 114.5 -45.5t45.5 -114.5q0 -64 -46 -112t-114 -48z
M1232 2304q-63 0 -111.5 48.5t-48.5 111.5q0 68 48 114t112 46q69 0 114.5 -45.5t45.5 -114.5q0 -64 -46 -112t-114 -48z" />
    <glyph glyph-name="uni04ED" unicode="&#x4ed;" horiz-adv-x="1524" 
d="M724 1336q-80 -1 -160.5 -40t-134 -107.5t-53.5 -144.5h-232q0 130 82 249t216.5 191t281.5 72q123 0 229 -40.5t183.5 -111.5t133 -167t83 -209.5t27.5 -235.5v-56q0 -122 -27.5 -235.5t-83 -209.5t-133 -167t-183.5 -111.5t-229 -40.5q-124 0 -232 43.5t-184 117.5
t-120 176t-44 215h232q0 -130 106 -230t242 -102q88 1 163.5 41.5t127 108t83.5 150t42 172.5h-572v220h570q-12 88 -44.5 167.5t-83.5 143.5t-125 102t-161 39zM472 1792q-63 0 -111.5 48.5t-48.5 111.5q0 68 48 114t112 46q69 0 114.5 -45.5t45.5 -114.5q0 -64 -46 -112
t-114 -48zM1048 1792q-63 0 -111.5 48.5t-48.5 111.5q0 68 48 114t112 46q69 0 114.5 -45.5t45.5 -114.5q0 -64 -46 -112t-114 -48z" />
    <glyph glyph-name="uni04EE" unicode="&#x4ee;" horiz-adv-x="1756" 
d="M356 -28v232h128q53 0 96.5 16.5t75 46.5t53 62.5t39.5 74.5l32 76l-708 1568h268l564 -1272l516 1272h264l-708 -1716q-21 -48 -37 -81t-41.5 -74t-50.5 -68t-62 -55t-78.5 -44.5t-97.5 -27t-121 -10.5h-132zM1340 2560v-200h-936v200h936z" />
    <glyph glyph-name="uni04EF" unicode="&#x4ef;" horiz-adv-x="1570" 
d="M368 -572q-116 0 -172 28l60 208q86 -22 152 -17t118.5 59t93.5 166l44 120l-568 1544h256l424 -1224h16l424 1224l258 -4l-654 -1756q-130 -348 -452 -348zM1252 2048v-200h-936v200h936z" />
    <glyph glyph-name="uni04F0" unicode="&#x4f0;" horiz-adv-x="1756" 
d="M356 -28v232h128q53 0 96.5 16.5t75 46.5t53 62.5t39.5 74.5l32 76l-708 1568h268l564 -1272l516 1272h264l-708 -1716q-21 -48 -37 -81t-41.5 -74t-50.5 -68t-62 -55t-78.5 -44.5t-97.5 -27t-121 -10.5h-132zM584 2304q-63 0 -111.5 48.5t-48.5 111.5q0 68 48 114
t112 46q69 0 114.5 -45.5t45.5 -114.5q0 -64 -46 -112t-114 -48zM1160 2304q-63 0 -111.5 48.5t-48.5 111.5q0 68 48 114t112 46q69 0 114.5 -45.5t45.5 -114.5q0 -64 -46 -112t-114 -48z" />
    <glyph glyph-name="uni04F1" unicode="&#x4f1;" horiz-adv-x="1570" 
d="M368 -572q-116 0 -172 28l60 208q86 -22 152 -17t118.5 59t93.5 166l44 120l-568 1544h256l424 -1224h16l424 1224l258 -4l-654 -1756q-130 -348 -452 -348zM496 1792q-63 0 -111.5 48.5t-48.5 111.5q0 68 48 114t112 46q69 0 114.5 -45.5t45.5 -114.5q0 -64 -46 -112
t-114 -48zM1072 1792q-63 0 -111.5 48.5t-48.5 111.5q0 68 48 114t112 46q69 0 114.5 -45.5t45.5 -114.5q0 -64 -46 -112t-114 -48z" />
    <glyph glyph-name="uni04F2" unicode="&#x4f2;" horiz-adv-x="1756" 
d="M356 -28v232h128q53 0 96.5 16.5t75 46.5t53 62.5t39.5 74.5l32 76l-708 1568h268l564 -1272l516 1272h264l-708 -1716q-21 -48 -37 -81t-41.5 -74t-50.5 -68t-62 -55t-78.5 -44.5t-97.5 -27t-121 -10.5h-132zM932 2216l308 424h264l-364 -424h-208zM520 2216l224 424
h260l-296 -424h-188z" />
    <glyph glyph-name="uni04F3" unicode="&#x4f3;" horiz-adv-x="1570" 
d="M368 -572q-116 0 -172 28l60 208q86 -22 152 -17t118.5 59t93.5 166l44 120l-568 1544h256l424 -1224h16l424 1224l258 -4l-654 -1756q-130 -348 -452 -348zM844 1704l308 424h264l-364 -424h-208zM432 1704l224 424h260l-296 -424h-188z" />
    <glyph glyph-name="uni04F4" unicode="&#x4f4;" horiz-adv-x="2012" 
d="M268 2048h248v-684q0 -112 29.5 -190t88 -122.5t135 -64t179.5 -19.5q283 0 568 83v997h248v-2048h-248v826q-139 -42 -266.5 -62t-301.5 -20q-163 0 -286 34t-212.5 106.5t-135.5 192.5t-46 287v684zM728 2304q-63 0 -111.5 48.5t-48.5 111.5q0 68 48 114t112 46
q69 0 114.5 -45.5t45.5 -114.5q0 -64 -46 -112t-114 -48zM1304 2304q-63 0 -111.5 48.5t-48.5 111.5q0 68 48 114t112 46q69 0 114.5 -45.5t45.5 -114.5q0 -64 -46 -112t-114 -48z" />
    <glyph glyph-name="uni04F5" unicode="&#x4f5;" horiz-adv-x="1616" 
d="M1400 1536v-1536h-236v536q-175 -52 -372 -52q-268 0 -422 144t-154 420v492h236v-492q0 -170 94 -257t246 -87q189 0 372 53v779h236zM520 1792q-63 0 -111.5 48.5t-48.5 111.5q0 68 48 114t112 46q69 0 114.5 -45.5t45.5 -114.5q0 -64 -46 -112t-114 -48zM1096 1792
q-63 0 -111.5 48.5t-48.5 111.5q0 68 48 114t112 46q69 0 114.5 -45.5t45.5 -114.5q0 -64 -46 -112t-114 -48z" />
    <glyph glyph-name="uni04F6" unicode="&#x4f6;" horiz-adv-x="1620" 
d="M1484 2048v-220h-988v-1608h232v-716h-236v496h-244v2048h1236z" />
    <glyph glyph-name="uni04F7" unicode="&#x4f7;" horiz-adv-x="1292" 
d="M1164 1536v-220h-712v-1104h232v-716h-236v504h-232v1536h948z" />
    <glyph glyph-name="uni04F8" unicode="&#x4f8;" horiz-adv-x="2328" 
d="M496 1188h520q325 0 502.5 -156.5t177.5 -427.5q0 -273 -178.5 -438.5t-501.5 -165.5h-768v2048h248v-860zM496 968v-752h520q102 0 186 33t137.5 88t83 125t29.5 146q0 153 -116.5 256.5t-319.5 103.5h-520zM2144 2048v-2048h-248v2048h248zM932 2216q-63 0 -111.5 48.5
t-48.5 111.5q0 68 48 114t112 46q69 0 114.5 -45.5t45.5 -114.5q0 -64 -46 -112t-114 -48zM1508 2216q-63 0 -111.5 48.5t-48.5 111.5q0 68 48 114t112 46q69 0 114.5 -45.5t45.5 -114.5q0 -64 -46 -112t-114 -48z" />
    <glyph glyph-name="uni04F9" unicode="&#x4f9;" horiz-adv-x="2112" 
d="M452 980h408q263 0 409.5 -134t146.5 -350q0 -215 -147.5 -355.5t-408.5 -140.5h-644v1536h236v-556zM1660 0v1536h236v-1536h-236zM452 760v-540h408q140 0 230 74t90 190q0 121 -90 198.5t-230 77.5h-408zM768 1792q-63 0 -111.5 48.5t-48.5 111.5q0 68 48 114t112 46
q69 0 114.5 -45.5t45.5 -114.5q0 -64 -46 -112t-114 -48zM1344 1792q-63 0 -111.5 48.5t-48.5 111.5q0 68 48 114t112 46q69 0 114.5 -45.5t45.5 -114.5q0 -64 -46 -112t-114 -48z" />
    <glyph glyph-name="uni04FA" unicode="&#x4fa;" horiz-adv-x="1620" 
d="M1484 2048v-220h-988v-680h316v-184h-316v-748h236v-340q0 -216 -111.5 -346t-316.5 -130q-87 0 -152 20l20 224q16 -8 62 -14t70 -6q84 0 138 67.5t54 184.5v124h-248v964h-316v184h316v900h1236z" />
    <glyph glyph-name="uni04FB" unicode="&#x4fb;" horiz-adv-x="1292" 
d="M1164 1536v-220h-712v-456h324v-184h-324v-800q0 -216 -111.5 -346t-316.5 -130q-87 0 -152 20l20 224q16 -8 62 -14t70 -6q84 0 138 67.5t54 184.5v800h-320v184h320v676h948z" />
    <glyph glyph-name="uni04FC" unicode="&#x4fc;" horiz-adv-x="1808" 
d="M368 2048l528 -852h16l528 852h292l-644 -1024l508 -808h208v-340q0 -216 -111.5 -346t-316.5 -130q-87 0 -152 20l20 224q16 -8 62 -14t70 -6q84 0 138 67.5t54 184.5v124h-128l-528 836h-16l-528 -836h-292l660 1024l-660 1024h292z" />
    <glyph glyph-name="uni04FD" unicode="&#x4fd;" horiz-adv-x="1520" 
d="M120 0l488 768l-488 768h272l368 -628l368 628h272l-496 -768l312 -488q77 -120 114 -220t34 -212q-2 -92 -30.5 -171.5t-80.5 -142t-133.5 -98.5t-183.5 -36q-87 0 -152 20l20 224q16 -8 62 -14t70 -6q42 0 81.5 21t70 61.5t42.5 101t-2 140.5q-19 101 -100 228
l-268 420l-368 -596h-272z" />
    <glyph glyph-name="uni04FE" unicode="&#x4fe;" horiz-adv-x="1808" 
d="M368 2048l528 -852h16l528 852h292l-586 -932h198v-184h-198l586 -932h-292l-528 836h-16l-528 -836h-292l601 932h-213v184h213l-601 932h292z" />
    <glyph glyph-name="uni04FF" unicode="&#x4ff;" horiz-adv-x="1520" 
d="M392 1536l368 -628l368 628h272l-437 -676h237v-184h-237l437 -676h-272l-368 596l-368 -596h-272l430 676h-230v184h230l-430 676h272z" />
    <glyph glyph-name="uni2190" horiz-adv-x="2688" 
d="M1174 0l-896 896l896 896l154 -152l-634 -634h1642v-220h-1642l634 -632z" />
    <glyph glyph-name="uni2194" horiz-adv-x="3776" 
d="M1174 0l-896 896l896 896l154 -152l-634 -634h2388l-634 634l154 152l896 -896l-896 -896l-154 154l634 632h-2388l634 -632z" />
    <glyph glyph-name="uni27F7" horiz-adv-x="4928" 
d="M1174 0l-896 896l896 896l154 -152l-634 -634h3540l-634 634l154 152l896 -896l-896 -896l-154 154l634 632h-3540l634 -632z" />
    <glyph glyph-name="uniE081" horiz-adv-x="1020" 
d="M300 1024q0 726 380 1280h208q-146 -201 -245 -564t-99 -716t99 -716t245 -564h-208q-380 554 -380 1280z" />
    <glyph glyph-name="uniE082" horiz-adv-x="1020" 
d="M720 1024q0 -726 -380 -1280h-208q146 201 245 564t99 716t-99 716t-245 564h208q380 -554 380 -1280z" />
    <glyph glyph-name="uniE083" horiz-adv-x="1020" 
d="M332 -256v2560h592v-196h-368v-2168h368v-196h-592z" />
    <glyph glyph-name="uniE084" horiz-adv-x="1020" 
d="M688 2304v-2560h-592v196h368v2168h-368v196h592z" />
    <glyph glyph-name="uniE085" horiz-adv-x="1020" 
d="M924 -256q-147 0 -246.5 31.5t-160.5 99t-87 165.5t-26 240v320q0 166 -67 235t-233 69v240q166 0 233 69t67 235v320q0 142 26 240t87 165.5t160.5 99t246.5 31.5v-196q-170 0 -237 -79.5t-67 -260.5v-400q0 -66 -12 -115t-42 -93t-86 -74.5t-140 -46.5v-30
q84 -16 140 -46.5t86 -74.5t42 -93t12 -115v-400q0 -181 67 -260.5t237 -79.5v-196z" />
    <glyph glyph-name="uniE086" horiz-adv-x="1020" 
d="M96 2304q147 0 246.5 -31.5t160.5 -99t87 -165.5t26 -240v-320q0 -166 67 -235t233 -69v-240q-166 0 -233 -69t-67 -235v-320q0 -142 -26 -240t-87 -165.5t-160.5 -99t-246.5 -31.5v196q170 0 237 79.5t67 260.5v400q0 66 12 115t42 93t86 74.5t140 46.5v30
q-84 16 -140 46.5t-86 74.5t-42 93t-12 115v400q0 181 -67 260.5t-237 79.5v196z" />
    <glyph glyph-name="uniE087" horiz-adv-x="2636" 
d="M1396 -240q-610 0 -935 328t-325 936q0 388 146.5 669t424.5 430t661 149q218 0 404 -60.5t318 -164.5t226 -243t139 -296.5t45 -323.5q0 -95 -3.5 -170t-14.5 -166t-30.5 -160t-55 -137t-83 -112t-118.5 -71.5t-159 -27.5q-57 0 -116 12.5t-116.5 38.5t-98 73t-49.5 108
h-12q-19 -46 -51 -85t-79 -71.5t-115.5 -49.5t-150.5 -14q-169 6 -290 98t-179.5 242.5t-58.5 343.5q0 265 149 440.5t379 199.5q144 14 253 -30t131 -114h12v112h212v-904q0 -89 49 -150.5t135 -61.5q61 0 104.5 25.5t72.5 74.5t45.5 131.5t23 184t6.5 244.5
q0 113 -25.5 222t-75.5 209.5t-129 184.5t-180 147t-236 98t-290 35q-471 0 -735.5 -283.5t-264.5 -784.5q0 -513 269 -788.5t779 -275.5q212 0 524 104l56 -184q-101 -43 -272.5 -77.5t-315.5 -34.5zM1280 556q198 0 287 119.5t89 372.5q0 124 -23 209t-71.5 133.5t-114 69
t-159.5 20.5q-110 0 -193.5 -60t-125 -157t-41.5 -215q0 -100 19 -185.5t59 -156t110 -110.5t164 -40z" />
    <glyph glyph-name="uniE088" horiz-adv-x="1296" 
d="M1096 1134v-220h-896v220h896z" />
    <glyph glyph-name="uniE092" horiz-adv-x="776" 
d="M388 262q-74 0 -127 53t-53 127t53 127t127 53t127 -53t53 -127t-53 -127t-127 -53zM388 1298q-74 0 -127 53t-53 127t53 127t127 53t127 -53t53 -127t-53 -127t-127 -53z" />
    <glyph glyph-name="uniE097" horiz-adv-x="1856" 
d="M284 912v160l1288 656v-256l-980 -472v-16l980 -472v-256z" />
    <glyph glyph-name="uniE098" horiz-adv-x="1856" 
d="M1572 912l-1288 -656v256l980 472v16l-980 472v256l1288 -656v-160z" />
    <glyph glyph-name="uniE09B" horiz-adv-x="1856" 
d="M312 620v216h1232v-216h-1232zM312 1212v216h1232v-216h-1232z" />
    <glyph glyph-name="uniE09D" horiz-adv-x="1856" 
d="M816 360v548h-548v224h548v548h224v-548h548v-224h-548v-548h-224z" />
    <glyph glyph-name="uniE09F" horiz-adv-x="1856" 
d="M1416 368l-488 488l-488 -488l-152 152l488 488l-488 488l152 152l488 -488l488 488l152 -152l-488 -488l488 -488z" />
    <glyph glyph-name="uniE0A3" horiz-adv-x="1856" 
d="M232 820q-2 97 19.5 175t58.5 130.5t89 88t109 51t120 15.5q98 0 181.5 -42t198.5 -142q77 -67 121 -91.5t95 -24.5q87 0 136.5 63.5t47.5 180.5h216q2 -97 -19.5 -175t-58.5 -130.5t-89 -88t-109 -51t-120 -15.5q-98 0 -181.5 42t-198.5 142q-77 67 -121 91.5t-95 24.5
q-86 0 -136 -59.5t-48 -184.5h-216z" />
    <glyph glyph-name="uniE0A4" horiz-adv-x="1408" 
d="M608 448l16 440l-372 -236l-96 168l392 204l-392 204l96 168l372 -236l-16 440h192l-16 -440l372 236l96 -168l-392 -204l392 -204l-96 -168l-372 236l16 -440h-192z" />
    <glyph glyph-name="uni2190.case" horiz-adv-x="2688" 
d="M1174 128l-896 896l896 896l154 -152l-634 -634h1642v-220h-1642l634 -632z" />
    <glyph glyph-name="uni27F5.case" horiz-adv-x="3776" 
d="M1174 128l-896 896l896 896l154 -152l-634 -634h2730v-220h-2730l634 -632z" />
    <glyph glyph-name="u1F850.case" horiz-adv-x="7552" 
d="M1174 128l-896 896l896 896l154 -152l-634 -634h6506v-220h-6506l634 -632z" />
    <glyph glyph-name="uni27F8.case" horiz-adv-x="3776" 
d="M1174 128l-896 896l896 896l154 -154l-395 -394h2491v-220h-2712l-128 -128l128 -128h2712v-220h-2492l396 -396z" />
    <glyph glyph-name="uni2192.case" horiz-adv-x="2688" 
d="M1514 128l-154 152l634 634h-1642v220h1642l-634 632l154 154l896 -896z" />
    <glyph glyph-name="uni27F6.case" horiz-adv-x="3776" 
d="M2602 1920l896 -896l-896 -896l-154 152l634 634h-2730v220h2730l-634 632z" />
    <glyph glyph-name="u1F852.case" horiz-adv-x="7552" 
d="M6378 128l-154 154l634 632h-6506v220h6506l-634 634l154 152l896 -896z" />
    <glyph glyph-name="uni21D2.case" horiz-adv-x="2688" 
d="M1514 128l-154 152l396 396h-1404v220h1624l128 128l-128 128h-1624v220h1403l-395 394l154 154l896 -896z" />
    <glyph glyph-name="uni27F9.case" horiz-adv-x="3776" 
d="M2602 128l-154 152l396 396h-2492v220h2712l128 128l-128 128h-2712v220h2491l-395 394l154 154l896 -896z" />
    <glyph glyph-name="uni2194.case" horiz-adv-x="3776" 
d="M1174 128l-896 896l896 896l154 -152l-634 -634h2388l-634 634l154 152l896 -896l-896 -896l-154 154l634 632h-2388l634 -632z" />
    <glyph glyph-name="uni27F7.case" horiz-adv-x="4928" 
d="M1174 128l-896 896l896 896l154 -152l-634 -634h3540l-634 634l154 152l896 -896l-896 -896l-154 154l634 632h-3540l634 -632z" />
    <glyph glyph-name="uni21D4.case" horiz-adv-x="3776" 
d="M2602 128l-154 152l396 396h-1912l396 -396l-154 -152l-896 896l896 896l154 -154l-395 -394h1910l-395 394l154 154l896 -896zM712 896h2352l128 128l-128 128h-2352l-128 -128z" />
    <glyph glyph-name="uni27FA.case" horiz-adv-x="4928" 
d="M3754 128l-154 152l396 396h-3064l396 -396l-154 -152l-896 896l896 896l154 -154l-395 -394h3062l-395 394l154 154l896 -896zM712 896h3504l128 128l-128 128h-3504l-128 -128z" />
    </font>
</defs>
</svg>
